<?xml version="1.0" standalone="no"?>
<!DOCTYPE svg PUBLIC "-//W3C//DTD SVG 20010904//EN"
 "http://www.w3.org/TR/2001/REC-SVG-20010904/DTD/svg10.dtd">
<svg version="1.0" xmlns="http://www.w3.org/2000/svg"
 width="1024.000000pt" height="768.000000pt" viewBox="0 0 1024.000000 768.000000"
 preserveAspectRatio="xMidYMid meet">

<g transform="translate(0.000000,768.000000) scale(0.100000,-0.100000)"
fill="#000000" stroke="none">
<path d="M0 6585 c0 -869 3 -1095 13 -1095 6 0 26 9 42 20 17 11 47 20 68 20
33 0 37 -3 37 -25 l0 -25 38 16 c20 9 48 19 62 22 33 7 111 60 109 75 -3 25
14 57 30 57 9 0 27 12 40 25 13 14 32 25 42 25 11 0 27 4 37 9 9 5 39 15 66
21 26 6 55 17 63 25 8 8 25 15 39 15 13 0 24 3 24 8 0 9 57 34 86 38 23 2 80
19 124 36 14 6 66 21 115 33 120 32 135 36 165 52 14 7 31 13 39 13 8 0 59 15
115 34 138 47 336 110 426 136 41 11 83 25 92 31 10 5 25 9 33 9 8 0 23 4 33
9 9 6 51 21 92 35 41 13 107 37 145 51 190 72 288 105 309 105 28 0 76 -36 76
-57 0 -8 -23 -44 -50 -79 -28 -35 -50 -66 -50 -68 0 -3 -29 -52 -65 -109 -36
-58 -65 -109 -65 -115 0 -6 -11 -23 -24 -39 -13 -15 -38 -55 -56 -88 -19 -33
-44 -78 -57 -100 -13 -22 -26 -48 -29 -57 -4 -10 -10 -18 -16 -18 -8 0 -48
-81 -52 -107 -1 -7 -12 -22 -24 -33 -12 -12 -22 -26 -22 -33 0 -7 -20 -44 -45
-82 -25 -39 -49 -85 -54 -103 -11 -37 -65 -127 -93 -155 -10 -10 -18 -31 -18
-47 0 -19 -5 -30 -14 -30 -8 0 -17 -14 -21 -32 -4 -18 -16 -41 -26 -51 -11
-10 -19 -30 -19 -45 0 -16 -13 -43 -31 -65 -17 -20 -28 -41 -25 -45 3 -5 -1
-18 -9 -28 -8 -10 -15 -27 -15 -36 0 -10 -7 -18 -15 -18 -8 0 -15 -8 -15 -19
0 -10 -10 -33 -22 -52 -29 -43 -43 -74 -59 -124 -7 -22 -20 -46 -31 -53 -10
-7 -18 -18 -18 -24 0 -5 -11 -19 -25 -30 -14 -11 -25 -26 -25 -34 0 -8 -7 -17
-15 -20 -8 -4 -15 -15 -15 -25 0 -12 -7 -19 -20 -19 -16 0 -20 -7 -20 -32 0
-57 -11 -75 -56 -104 -41 -26 -44 -31 -44 -71 0 -39 -4 -45 -39 -67 -42 -27
-59 -46 -42 -46 23 0 10 -29 -21 -49 -51 -33 -101 -68 -128 -90 l-25 -20 23
-1 23 0 -22 -40 c-21 -37 -26 -40 -66 -40 -32 0 -43 -4 -43 -15 0 -11 -11 -15
-40 -15 -22 0 -40 -4 -40 -10 0 -6 -35 -10 -85 -10 -78 0 -88 2 -111 25 -28
28 -44 32 -44 10 0 -12 -16 -15 -80 -15 -47 0 -80 -4 -80 -10 0 -5 -18 -10
-40 -10 -22 0 -40 5 -40 10 0 6 -18 10 -40 10 -22 0 -40 -4 -40 -10 0 -6 -33
-10 -80 -10 -64 0 -80 -3 -80 -15 0 -11 -11 -15 -40 -15 -22 0 -40 5 -40 10 0
6 -18 10 -40 10 -34 0 -40 -3 -40 -22 0 -12 7 -29 16 -39 19 -21 28 -104 14
-127 -8 -14 -9 -12 -5 8 4 15 0 33 -9 45 -14 18 -15 -119 -16 -1298 0 -1400
-2 -1347 44 -1347 8 0 18 -4 21 -10 4 -6 -9 -10 -32 -11 l-38 -1 39 -12 c26
-8 35 -15 27 -20 -9 -6 -8 -12 5 -27 12 -13 14 -22 7 -31 -6 -7 -16 -37 -23
-66 -7 -31 -20 -58 -31 -65 -18 -11 -19 -29 -19 -344 l0 -333 1511 0 c1370 0
1510 1 1498 16 -17 20 -19 55 -8 134 11 78 37 207 49 236 13 34 92 48 227 40
121 -7 151 -16 240 -77 23 -16 51 -29 62 -29 16 0 21 -6 21 -24 0 -13 4 -26
10 -28 8 -3 18 -115 19 -230 l1 -38 212 0 c201 0 210 1 195 18 -16 18 -16 23
-2 154 6 49 5 68 -4 68 -6 0 -11 9 -11 19 0 11 -4 23 -10 26 -5 3 -10 19 -10
36 0 16 -6 39 -12 50 -10 17 -10 23 0 26 6 3 12 13 12 22 0 25 77 40 240 46
74 2 153 9 175 15 22 6 89 18 149 25 114 14 146 25 80 26 -68 1 -318 9 -341
11 -12 1 -20 5 -17 9 4 7 -85 22 -136 22 -14 0 -91 -3 -173 -8 -143 -8 -222
-2 -387 26 -30 6 -191 14 -358 19 -167 5 -307 12 -311 14 -4 3 -41 6 -83 7
-42 1 -116 8 -165 15 -48 8 -133 14 -188 14 -55 0 -199 5 -320 11 -131 6 -240
7 -270 2 -29 -5 -84 -5 -129 0 -59 7 -80 6 -86 -3 -14 -23 -121 -41 -215 -35
l-90 5 40 -16 c31 -12 89 -17 254 -20 161 -3 218 -7 230 -18 12 -9 50 -13 141
-13 141 0 170 -6 170 -34 0 -32 -43 -42 -119 -28 -36 6 -86 11 -111 11 -301
-6 -633 0 -770 15 -25 2 -67 6 -95 8 -72 7 -227 46 -244 62 -7 8 -26 17 -42
20 -16 3 -27 9 -24 13 7 11 -71 29 -95 23 -22 -6 -150 36 -150 49 0 4 -18 8
-40 8 -22 0 -40 5 -40 11 0 7 -16 9 -47 5 -78 -11 -126 -8 -136 9 -4 8 -16 15
-25 15 -14 0 -14 2 -3 9 15 10 7 13 -56 26 -47 9 -49 31 -5 46 35 12 75 14
326 17 99 2 108 3 90 17 -17 13 -8 14 91 15 61 1 130 5 155 9 105 18 -19 22
-309 12 -166 -6 -312 -9 -326 -5 l-26 6 32 31 32 30 166 8 c91 4 174 8 184 8
10 1 16 5 13 10 -8 13 50 35 66 24 17 -11 881 -4 976 8 81 10 280 1 288 -13 3
-5 -8 -27 -25 -50 -17 -23 -31 -51 -31 -63 0 -12 -5 -26 -11 -32 -28 -28 4
-33 191 -29 173 4 219 -1 189 -19 -5 -4 -38 -9 -72 -12 -240 -17 -136 -33 278
-43 198 -5 414 -12 480 -16 146 -8 595 5 595 17 0 5 -64 9 -142 9 -79 1 -206
5 -283 10 -77 5 -222 13 -322 16 -101 4 -183 11 -183 15 0 14 37 29 73 29 55
0 127 12 122 20 -8 12 32 19 160 25 66 4 154 14 195 24 41 10 113 24 160 31
47 6 106 20 132 31 67 27 77 24 35 -12 -65 -56 -42 -99 52 -99 30 0 40 5 49
24 16 35 46 50 62 30 11 -12 10 -17 -6 -29 -33 -25 1 -36 106 -32 120 5 159
16 211 61 24 20 46 36 51 36 5 0 32 16 62 35 55 37 155 63 152 40 -3 -22 -86
-87 -133 -105 -52 -19 -70 -38 -60 -64 5 -13 22 -16 89 -16 122 0 158 8 155
33 -1 14 8 26 28 36 17 8 55 29 85 46 52 29 61 31 135 28 45 -2 102 -12 130
-23 47 -17 80 -26 134 -36 13 -3 44 -16 70 -29 30 -17 62 -25 93 -25 38 0 46
-3 42 -15 -5 -11 -23 -15 -74 -15 -62 0 -160 -29 -160 -47 0 -10 310 7 339 19
27 11 193 12 248 2 l33 -6 -22 -18 -22 -17 25 -14 c38 -21 149 -16 679 27 287
24 684 18 1028 -16 226 -22 177 -33 -203 -45 -99 -3 -211 -10 -250 -15 -38 -5
-106 -12 -150 -15 -184 -15 -54 -41 156 -31 68 3 201 10 294 15 645 37 704 39
1215 36 514 -3 633 -9 925 -45 60 -8 86 -7 103 2 20 10 29 9 54 -5 29 -17 198
-39 368 -49 80 -5 124 20 122 70 -1 28 4 32 41 46 24 8 96 17 170 20 199 9
261 -14 270 -97 4 -32 0 -43 -24 -67 -31 -31 -45 -34 -259 -70 -69 -11 -147
-25 -175 -30 -27 -5 -84 -12 -125 -15 -118 -11 -370 -44 -381 -50 -5 -4 -37
-9 -72 -12 -34 -3 -89 -11 -122 -18 -33 -7 -107 -23 -165 -35 -172 -35 -161
-31 -120 -43 19 -6 41 -17 48 -24 7 -7 35 -13 61 -13 26 0 51 -4 57 -9 5 -5
26 -14 47 -21 20 -6 35 -16 32 -20 -3 -5 4 -19 16 -31 13 -13 23 -30 24 -38 1
-9 9 -32 18 -51 9 -19 21 -54 27 -77 l11 -43 346 0 345 0 -6 22 c-3 13 -9 80
-12 149 -7 123 -6 126 17 148 22 20 32 22 171 20 202 -1 195 5 180 -165 -6
-71 -14 -139 -18 -151 -6 -22 -4 -23 55 -23 l61 0 0 3840 0 3840 -53 0 -53 0
9 -77 c5 -44 5 -176 1 -298 -16 -447 -3 -1414 21 -1645 17 -167 16 -272 -4
-440 -6 -47 -9 -184 -7 -305 3 -153 0 -254 -10 -331 -11 -83 -13 -186 -10
-400 4 -251 0 -402 -19 -635 -2 -31 -11 -82 -20 -115 -8 -32 -15 -70 -15 -84
0 -14 -8 -30 -20 -38 -11 -7 -20 -17 -20 -22 0 -6 -7 -27 -15 -48 -12 -28 -18
-33 -25 -22 -16 25 -24 2 -27 -79 -3 -61 -1 -82 11 -94 20 -20 20 -27 0 -27
-8 0 -12 -5 -9 -10 3 -6 14 -10 24 -10 10 0 30 -11 46 -26 15 -14 29 -23 32
-20 8 8 65 -63 59 -73 -3 -5 1 -14 9 -21 31 -25 16 -182 -22 -239 -5 -8 -127
0 -164 10 -21 5 -40 16 -43 24 -3 8 -15 15 -26 15 -15 0 -26 11 -38 40 -14 32
-21 38 -38 34 -19 -5 -24 2 -44 68 -21 68 -22 89 -19 313 1 132 -3 362 -10
510 -18 374 -19 590 -2 715 9 65 14 197 14 350 0 237 0 248 -26 330 -64 205
-74 346 -46 670 19 212 15 836 -5 975 -53 350 -55 382 -49 630 2 127 5 263 6
302 l2 73 -264 0 -263 0 6 -197 c4 -109 12 -243 18 -298 7 -64 8 -200 4 -380
-3 -154 -5 -512 -4 -795 2 -645 2 -773 0 -1200 -1 -190 3 -403 8 -475 17 -212
-3 -633 -43 -930 -12 -91 -13 -130 -6 -367 l4 -128 83 0 c75 0 85 -2 107 -25
14 -13 25 -32 25 -42 -1 -12 -6 -8 -15 12 -7 17 -14 27 -14 22 -1 -4 -11 -1
-23 7 -20 12 -37 12 -118 0 -107 -15 -422 -40 -640 -49 -80 -4 -161 -10 -180
-14 l-35 -8 2 166 c2 90 7 189 13 219 5 30 13 96 16 147 6 78 3 102 -16 166
-50 164 -89 231 -204 341 -70 68 -109 84 -180 72 -54 -9 -191 -8 -241 1 -29 5
-31 10 -63 118 -19 61 -47 141 -63 175 -17 35 -29 71 -28 80 2 10 -4 33 -13
52 -9 19 -34 77 -57 128 -22 51 -41 103 -41 115 0 22 -23 63 -46 82 -7 6 -25
35 -40 65 -16 30 -36 64 -46 75 -10 10 -33 41 -51 67 -17 26 -38 48 -44 48
-11 0 -20 53 -14 84 1 6 5 53 7 105 3 53 8 114 10 136 10 73 1 220 -21 370
-10 63 -83 229 -121 273 -19 22 -34 43 -34 47 0 20 -145 135 -169 135 -6 0
-10 4 -9 9 5 16 -45 53 -122 90 -74 36 -76 36 -205 36 -140 1 -241 -9 -260
-25 -7 -6 -38 -11 -70 -11 -32 -1 -70 -8 -84 -15 -14 -8 -32 -14 -38 -14 -7 0
-13 -4 -13 -10 0 -5 -3 -9 -7 -8 -20 4 -144 -57 -176 -86 -14 -13 -40 -34 -59
-46 -57 -41 -178 -151 -178 -164 0 -7 -9 -21 -21 -32 -61 -55 -90 -217 -82
-449 1 -27 2 -70 2 -95 1 -129 5 -170 18 -170 13 0 17 -17 14 -52 -3 -23 4
-23 30 3 17 17 23 18 36 7 14 -11 12 -14 -12 -24 -28 -11 -28 -12 -7 -23 11
-6 30 -11 41 -11 29 0 140 71 135 85 -3 7 2 17 9 24 18 14 9 63 -19 106 -10
16 -13 26 -6 22 20 -13 15 57 -6 76 -20 19 -163 41 -195 31 -16 -5 -18 -2 -14
23 3 15 9 48 12 73 10 76 16 100 24 96 4 -3 13 12 20 32 7 20 25 55 39 77 15
22 27 43 27 48 0 4 3 6 6 5 3 -2 12 2 20 8 21 15 157 18 174 4 8 -7 15 -10 15
-6 0 10 53 -20 72 -41 10 -11 14 -24 9 -31 -4 -7 -3 -38 1 -70 17 -102 17
-162 2 -162 -8 0 -14 -7 -14 -15 0 -8 -8 -15 -18 -15 -13 0 -68 -40 -73 -53 0
-1 -4 -40 -8 -87 -4 -47 -16 -103 -26 -125 -10 -22 -19 -44 -20 -50 -2 -5 -12
-35 -24 -65 -11 -30 -20 -74 -19 -97 2 -29 -4 -48 -16 -62 -22 -25 -56 -28
-56 -6 0 25 -27 28 -50 7 -12 -11 -34 -44 -49 -73 -16 -30 -34 -53 -40 -52
-19 5 -13 -15 34 -114 25 -52 45 -97 45 -100 0 -14 37 -49 48 -45 7 2 20 -4
28 -14 13 -17 14 -11 8 61 -6 73 -6 78 10 63 9 -9 16 -25 16 -36 0 -27 26 -86
44 -102 9 -7 16 -9 16 -4 0 5 5 2 10 -7 6 -11 30 -19 64 -23 70 -9 86 -22 97
-79 14 -75 10 -79 -93 -92 -27 -3 -48 -11 -48 -16 0 -6 -9 -7 -21 -4 -19 6
-20 5 -9 -15 20 -38 75 -53 168 -47 81 5 83 4 112 -24 16 -16 32 -38 35 -49 4
-11 10 -20 15 -20 5 0 12 -9 15 -21 4 -11 9 -18 12 -15 9 8 63 -77 63 -99 0
-11 11 -33 25 -49 24 -28 30 -41 25 -61 -9 -41 -9 -53 -1 -82 10 -37 -1 -52
-24 -33 -10 8 -15 9 -15 2 0 -6 -12 -9 -27 -8 -19 2 -30 11 -36 30 -5 14 -15
26 -23 26 -8 0 -14 9 -14 20 0 11 -4 28 -9 38 -5 9 -15 44 -22 78 l-12 60
-171 -68 c-94 -38 -186 -76 -204 -84 -51 -24 -312 -76 -351 -70 -73 11 -138
-58 -233 -249 -77 -152 -108 -243 -108 -314 0 -45 -4 -59 -23 -76 -13 -11 -30
-30 -39 -43 -8 -12 -35 -43 -58 -69 -24 -25 -57 -73 -74 -106 -26 -52 -36 -62
-66 -70 -43 -10 -70 -40 -70 -77 0 -15 -9 -35 -20 -45 -11 -10 -20 -22 -20
-27 0 -10 -85 -106 -216 -247 -39 -42 -85 -97 -102 -123 -37 -54 -77 -88 -103
-88 -11 0 -29 -18 -46 -47 -30 -53 -35 -58 -112 -129 -30 -27 -52 -41 -48 -32
3 9 2 18 -2 20 -5 2 -5 44 0 93 4 50 5 144 2 210 -3 66 -5 161 -5 210 7 2299
12 3261 16 3517 4 237 2 360 -9 487 -12 134 -13 207 -5 348 5 98 10 246 10
329 l0 150 41 70 c23 38 53 82 68 98 28 31 114 76 146 76 11 0 63 22 115 48
52 26 109 53 125 59 23 8 -81 11 -431 12 l-462 1 -6 -22 c-3 -13 -6 -32 -6
-44 0 -23 -45 -60 -86 -70 -16 -4 -38 -13 -49 -20 -11 -7 -50 -16 -85 -18 -36
-3 -80 -10 -99 -15 -56 -17 -65 2 -31 69 11 22 17 40 13 40 -5 1 4 8 20 16 28
15 31 22 21 48 -6 15 -162 16 -1665 16 l-1659 0 0 -1095z m3677 610 c43 -48
50 -91 29 -184 -20 -94 -20 -115 -2 -185 8 -30 22 -106 31 -168 22 -143 15
-253 -21 -368 -39 -123 -50 -225 -35 -324 38 -264 42 -305 37 -408 -3 -59 0
-218 6 -355 15 -322 13 -415 -9 -554 -12 -79 -17 -146 -13 -219 2 -58 4 -193
5 -300 0 -191 -1 -196 -24 -230 -50 -71 -84 -98 -128 -103 -55 -6 -80 -23
-185 -129 -48 -48 -92 -88 -96 -88 -4 0 -21 -22 -37 -50 -17 -28 -36 -49 -44
-47 -17 2 -69 84 -70 110 -1 9 -5 25 -10 35 -20 37 -41 143 -51 262 -6 69 -16
140 -22 158 -8 27 -7 42 6 70 9 21 20 67 25 103 10 71 33 127 57 136 17 6 18
52 1 74 -7 8 -25 23 -42 33 -45 27 -77 72 -89 124 -12 54 -14 168 -2 179 4 4
44 10 89 13 81 5 82 5 78 30 -4 33 -30 83 -47 93 -8 4 -14 14 -14 21 0 7 -9
21 -20 31 -11 10 -20 22 -20 28 0 5 -10 22 -21 39 -22 30 -23 37 -45 378 -3
47 -13 101 -22 120 -11 23 -16 59 -16 106 1 71 5 83 57 174 22 39 27 64 37
190 14 185 15 190 53 231 60 63 59 63 41 108 -9 23 -20 41 -24 41 -4 0 -15 16
-25 35 -15 32 -15 49 -4 173 6 75 11 159 10 185 -1 50 14 80 67 137 13 14 37
53 54 88 16 35 36 66 44 69 8 3 14 11 14 18 0 32 92 89 220 137 96 35 133 32
177 -17z m3238 -1205 c14 -5 24 -14 21 -19 -3 -5 2 -8 11 -7 9 0 18 -5 20 -11
6 -18 -15 -16 -65 7 -24 11 -41 24 -37 30 8 13 17 13 50 0z m60 -90 c3 -6 -1
-7 -9 -4 -18 7 -21 14 -7 14 6 0 13 -4 16 -10z m-1390 -662 c-3 -7 -17 -18
-30 -25 -22 -9 -25 -9 -25 6 0 24 9 31 36 31 15 0 22 -5 19 -12z m1505 -28
c11 -6 24 -20 30 -33 10 -19 9 -20 -2 -5 -8 9 -29 23 -48 31 -22 10 -28 16
-17 16 10 1 27 -4 37 -9z m-906 -48 c3 -5 -1 -9 -9 -9 -8 0 -12 4 -9 9 3 4 7
8 9 8 2 0 6 -4 9 -8z m-479 -47 c0 -5 -10 -11 -22 -13 -16 -2 -23 2 -23 13 0
11 7 15 23 13 12 -2 22 -7 22 -13z m567 -106 c3 -16 0 -30 -5 -32 -11 -3 -11
-5 -23 -72 -10 -53 -31 -85 -58 -85 -25 0 -101 47 -132 81 -19 21 -19 21 9 43
15 12 27 27 27 32 0 32 71 62 147 61 27 0 32 -4 35 -28z m654 -236 c-10 -10
-19 5 -10 18 6 11 8 11 12 0 2 -7 1 -15 -2 -18z m-1191 -12 c3 -5 19 -12 35
-16 30 -7 40 -20 19 -27 -8 -3 -6 -10 5 -21 13 -13 14 -18 4 -21 -7 -2 -29 -8
-49 -15 -19 -6 -38 -11 -40 -11 -3 0 -2 24 2 53 3 28 5 55 2 60 -6 10 15 9 22
-2z m572 -163 c-3 -8 -6 -5 -6 6 -1 11 2 17 5 13 3 -3 4 -12 1 -19z m-429 -8
c2 -6 10 -4 17 6 8 12 18 15 31 9 27 -12 37 -12 51 -2 18 13 33 0 33 -29 0
-17 -5 -24 -20 -24 -11 0 -20 6 -21 13 0 8 -2 8 -6 -2 -5 -11 -7 -11 -14 0 -6
10 -9 8 -9 -7 0 -26 -17 -34 -75 -34 -65 0 -92 13 -97 49 -4 26 -1 30 21 33
40 6 86 -1 89 -12z m179 -17 c-16 -16 -17 -16 -17 3 0 11 3 24 7 28 4 3 11 2
17 -4 7 -7 5 -16 -7 -27z m-214 -109 c-4 -10 -10 -11 -25 -3 -16 8 -18 13 -8
19 18 11 40 1 33 -16z m-175 -9 c-3 -3 -9 2 -12 12 -6 14 -5 15 5 6 7 -7 10
-15 7 -18z m848 -1067 c-6 -74 -4 -88 8 -88 8 0 19 8 25 17 5 10 12 15 16 11
10 -10 -35 -146 -51 -152 -8 -3 -14 -11 -14 -18 0 -9 3 -8 10 2 15 23 12 -3
-4 -42 -8 -19 -25 -39 -38 -45 -14 -6 -56 -46 -94 -89 -90 -102 -91 -104 -99
-104 -3 0 3 13 14 29 12 16 21 34 21 40 0 6 6 10 13 9 7 -2 12 6 11 19 0 12 3
20 7 18 4 -3 13 3 20 13 13 15 12 16 -3 3 -12 -9 -18 -10 -18 -2 0 6 -3 10 -7
10 -20 -3 -33 2 -33 13 0 6 -9 21 -20 33 -10 11 -21 36 -22 55 -3 32 -1 34 47
49 28 9 55 22 62 31 8 9 12 49 13 99 0 65 5 95 21 128 11 24 26 43 32 43 7 1
25 12 42 25 l30 25 8 -23 c5 -12 6 -61 3 -109z m-2908 106 c12 -13 15 -33 14
-88 -4 -135 -19 -190 -71 -252 -14 -18 -37 -47 -51 -65 -14 -18 -32 -39 -40
-46 -68 -59 -74 -63 -115 -63 -67 0 -104 32 -136 117 -22 61 -25 79 -18 128 9
67 20 81 69 89 48 7 103 31 121 52 8 9 37 34 65 55 28 20 57 43 65 51 14 14
58 36 72 37 5 1 16 -6 25 -15z m-2802 -56 c12 -19 6 -60 -16 -103 -11 -22 -20
-47 -20 -57 0 -9 -4 -19 -9 -22 -5 -4 -17 -32 -27 -64 -9 -31 -20 -61 -24 -67
-4 -5 -15 -39 -24 -75 -16 -60 -45 -151 -102 -327 -13 -39 -24 -82 -24 -95 0
-13 -4 -28 -9 -33 -6 -6 -17 -35 -25 -65 -38 -145 -74 -224 -103 -228 -38 -6
-68 91 -77 242 -3 55 -10 92 -18 97 -7 5 -13 36 -14 86 0 43 -2 84 -3 91 0 8
-29 42 -63 78 -59 60 -62 66 -59 106 1 24 9 53 17 65 8 12 14 27 14 33 0 6 8
29 18 53 11 23 27 68 38 101 10 32 24 65 31 72 7 7 13 16 13 21 0 15 61 73 83
78 32 7 229 22 319 24 51 1 79 -3 84 -11z m5467 -89 c-5 -5 -9 14 -10 44 l-1
52 10 -44 c5 -24 6 -47 1 -52z m-17 -72 c-5 -34 -26 -32 -26 2 0 23 4 29 15
25 8 -3 13 -15 11 -27z m-179 -213 c49 -33 53 -37 23 -26 -47 18 -80 39 -73
45 9 10 8 10 50 -19z m73 -69 c0 -14 5 -25 10 -25 6 0 10 8 10 17 0 14 5 13
26 -8 36 -36 35 -78 -5 -125 -36 -45 -37 -60 -16 -200 50 -316 56 -434 30
-554 -5 -20 -3 -22 6 -10 9 13 10 13 6 -1 -3 -9 -17 -63 -32 -120 -14 -57 -33
-117 -42 -133 -9 -16 -16 -47 -16 -70 0 -22 -2 -33 -5 -23 -2 9 -7 15 -12 12
-4 -3 -2 16 6 42 8 25 14 50 14 55 0 21 -22 4 -51 -39 -40 -58 -44 -61 -75
-55 -22 4 -25 9 -19 31 3 14 18 43 33 63 15 21 35 52 44 70 10 18 18 26 19 18
0 -10 3 -8 8 5 5 11 4 30 -2 42 -7 15 -5 35 7 69 9 26 16 67 16 91 0 44 13 82
33 95 7 4 6 22 -3 55 -8 27 -14 108 -16 188 -1 77 -5 202 -8 278 -4 84 -2 145
4 156 5 10 11 37 12 60 3 44 18 58 18 16z m170 -240 c-7 -9 -15 -13 -17 -11
-7 7 7 26 19 26 6 0 6 -6 -2 -15z m2960 -185 c0 -11 -4 -20 -9 -20 -5 0 -7 9
-4 20 3 11 7 20 9 20 2 0 4 -9 4 -20z m-2953 -67 c-13 -45 -27 -66 -27 -41 0
19 30 92 35 86 2 -2 -1 -22 -8 -45z m2940 -35 c-3 -8 -6 -5 -6 6 -1 11 2 17 5
13 3 -3 4 -12 1 -19z m-5888 -140 c1 -5 -3 -8 -9 -8 -5 0 -10 12 -9 28 0 24 1
25 9 7 5 -11 9 -23 9 -27z m6703 -38 c2 -5 1 -34 0 -64 -3 -42 -7 -53 -18 -49
-9 3 -14 -2 -15 -13 -3 -58 -4 -59 -36 -62 -30 -3 -48 -22 -21 -22 6 0 9 -2 6
-5 -3 -3 -13 -3 -22 1 -29 11 -18 112 20 184 11 21 29 31 76 39 3 0 8 -3 10
-9z m-835 -52 c-3 -7 -5 -2 -5 12 0 14 2 19 5 13 2 -7 2 -19 0 -25z m-8527
-68 c0 -5 -7 -10 -16 -10 -8 0 -12 5 -9 10 3 6 10 10 16 10 5 0 9 -4 9 -10z
m-60 -90 c0 -47 -4 -80 -10 -80 -5 0 -10 -9 -10 -20 0 -11 -7 -23 -15 -26 -8
-4 -15 -12 -15 -20 0 -8 7 -14 15 -14 8 0 15 -7 15 -15 0 -11 11 -15 40 -15
29 0 40 4 40 15 0 9 9 15 23 15 20 0 22 -4 19 -45 -3 -36 -1 -45 12 -45 9 0
32 -16 52 -35 19 -19 41 -35 48 -35 7 0 21 -9 31 -20 10 -11 32 -24 49 -28 34
-9 47 -32 19 -33 -35 -1 62 -38 102 -39 23 0 58 -9 80 -20 47 -24 45 -24 45
-4 0 14 8 16 58 11 63 -7 262 12 262 25 0 4 18 8 40 8 23 0 40 -5 40 -11 0 -8
17 -10 50 -7 27 3 54 0 59 -5 7 -7 15 -6 26 3 14 11 18 11 25 0 5 -9 22 -11
54 -8 44 5 116 -8 132 -25 4 -4 18 -7 31 -7 12 0 23 -4 23 -10 0 -5 15 -10 33
-10 39 0 163 -35 184 -51 12 -10 16 -10 23 1 7 12 14 10 37 -11 15 -14 41 -31
56 -37 15 -7 30 -19 33 -27 4 -8 14 -15 24 -15 10 0 23 -7 30 -15 17 -21 99
-65 121 -65 11 0 19 -5 19 -11 0 -15 59 -69 75 -69 7 0 18 -7 25 -16 22 -26
52 -38 60 -24 6 10 15 6 34 -14 15 -14 33 -26 40 -26 8 0 19 -7 27 -16 20 -25
65 -44 104 -44 38 0 50 -20 13 -21 -22 0 -22 -1 -3 -8 11 -5 22 -4 23 0 2 5
16 9 30 8 15 0 21 -3 15 -6 -27 -10 -10 -21 53 -34 66 -13 119 -38 82 -39 -9
0 -18 5 -20 10 -2 7 -15 7 -37 0 -25 -7 -37 -6 -42 1 -4 6 -19 9 -35 5 -35 -7
-188 7 -299 27 -44 8 -129 16 -190 18 -60 2 -114 5 -119 7 -5 3 -43 6 -85 8
-42 2 -116 5 -166 8 -49 3 -169 10 -265 15 -155 9 -482 38 -820 72 -63 7 -140
13 -170 15 -106 4 -185 17 -224 35 -22 11 -46 19 -53 19 -9 0 -10 6 -3 26 6
14 10 41 10 60 0 19 4 34 8 34 5 0 7 48 5 108 -6 147 -6 147 -21 165 -7 9 -16
50 -19 91 -3 42 -10 76 -14 76 -5 0 -19 10 -30 21 -20 20 -20 22 -5 31 14 8
17 19 12 61 -3 29 -2 42 2 30 5 -16 11 -20 21 -14 8 5 11 16 7 26 -3 9 -1 25
4 36 9 15 15 17 30 9 19 -10 20 -7 20 55 0 37 4 65 10 65 6 0 10 -33 10 -80z
m8577 43 c-3 -10 -5 -4 -5 12 0 17 2 24 5 18 2 -7 2 -21 0 -30z m-10 -105 c-3
-7 -5 -2 -5 12 0 14 2 19 5 13 2 -7 2 -19 0 -25z m903 -51 c52 -26 66 -157 25
-242 -28 -59 -41 -72 -84 -85 -32 -9 -229 6 -268 21 -20 7 -37 31 -63 89 -13
28 -5 146 11 155 5 4 9 13 9 22 0 9 7 25 17 35 14 16 34 18 172 18 105 0 164
-4 181 -13z m-913 -94 c-3 -10 -5 -2 -5 17 0 19 2 27 5 18 2 -10 2 -26 0 -35z
m-10 -110 c-2 -16 -4 -3 -4 27 0 30 2 43 4 28 2 -16 2 -40 0 -55z m-4078 -63
c6 -52 14 -117 16 -145 3 -27 7 -66 10 -85 2 -19 1 -26 -2 -15 l-6 20 -8 -20
c-6 -16 -8 -14 -8 13 -1 29 -4 32 -32 32 -17 0 -39 5 -50 11 -13 6 -25 7 -32
1 -7 -5 -46 -12 -87 -15 -125 -10 -135 -12 -174 -35 -39 -23 -66 -21 -45 4 6
8 24 14 40 14 16 0 29 4 29 10 0 5 -8 7 -17 3 -16 -6 -16 -4 1 15 11 12 21 20
24 17 3 -3 11 4 19 15 8 12 20 17 30 13 12 -5 15 -2 10 10 -3 9 -2 17 3 17 6
0 45 35 88 78 96 98 164 154 173 145 4 -5 12 -51 18 -103z m-4723 -215 c3 -20
4 -39 0 -42 -3 -3 -2 -11 4 -18 5 -6 10 -29 12 -50 1 -22 7 -50 14 -63 6 -12
11 -32 10 -45 -1 -17 -6 -21 -26 -19 -54 7 -60 26 -53 155 4 86 9 117 19 117
7 0 16 -16 20 -35z m8781 -2 c-3 -10 -5 -4 -5 12 0 17 2 24 5 18 2 -7 2 -21 0
-30z m-5653 -14 c39 -30 48 -53 35 -83 -15 -33 -62 -44 -86 -20 -26 26 -43 63
-43 95 0 26 3 29 34 29 19 0 45 -9 60 -21z m1603 -61 c-3 -8 -6 -5 -6 6 -1 11
2 17 5 13 3 -3 4 -12 1 -19z m480 -9 c15 -7 40 -11 56 -10 19 2 27 -2 27 -13
0 -9 -4 -16 -8 -16 -5 0 -14 -11 -20 -24 -9 -21 -20 -25 -79 -30 -37 -4 -80
-10 -96 -15 -36 -12 -81 1 -86 24 -2 10 -14 27 -27 38 -28 22 -31 42 -6 57 21
13 198 5 239 -11z m-912 -9 c71 -16 197 -30 312 -34 102 -5 111 -3 106 12 -4
13 -2 13 10 -3 12 -16 30 -20 116 -23 66 -3 101 -8 101 -16 -1 -27 -20 -38
-66 -40 -42 -1 -49 -4 -54 -26 -7 -31 -89 -63 -138 -55 -18 4 -50 1 -70 -6
-54 -18 -129 -15 -205 6 -62 18 -99 46 -83 62 3 3 0 11 -7 17 -14 14 -146 66
-167 66 -9 0 -32 9 -53 20 -23 13 -48 18 -65 15 -27 -5 -27 -5 3 9 32 15 184
13 260 -4z m-350 -50 c4 -6 32 -8 73 -4 l67 6 -24 -20 c-28 -23 -73 -32 -146
-31 -39 0 -46 2 -30 10 14 6 -2 8 -50 5 -38 -3 -86 -1 -105 3 l-35 9 35 2 c19
1 58 8 85 15 63 16 122 18 130 5z m98 -105 c-4 -13 -113 -19 -113 -6 0 5 10
12 23 14 37 8 92 3 90 -8z m4724 -7 c-3 -8 -6 -5 -6 6 -1 11 2 17 5 13 3 -3 4
-12 1 -19z m-4520 -65 c6 -17 -63 -36 -103 -28 -39 7 -41 26 -3 36 35 11 102
6 106 -8z m-4004 -69 c58 -5 74 -10 70 -20 -3 -8 -18 -14 -33 -14 -31 0 -171
28 -179 35 -6 7 52 6 142 -1z m2586 -49 c2 -3 -14 -5 -37 -5 -23 0 -42 4 -42
10 0 9 69 5 79 -5z m1986 -149 c17 -12 17 -16 6 -30 -20 -23 -114 -19 -119 5
-6 31 79 50 113 25z m-4857 -23 c-21 -2 -57 -2 -80 0 -24 2 -7 4 37 4 44 0 63
-2 43 -4z m85 0 c-7 -2 -21 -2 -30 0 -10 3 -4 5 12 5 17 0 24 -2 18 -5z m1887
-8 c0 -9 -9 -15 -21 -15 -18 0 -19 2 -9 15 7 8 16 15 21 15 5 0 9 -7 9 -15z"/>
<path d="M6890 5980 c8 -5 20 -10 25 -10 6 0 3 5 -5 10 -8 5 -19 10 -25 10 -5
0 -3 -5 5 -10z"/>
<path d="M6140 2526 c0 -14 5 -28 10 -31 6 -4 10 7 10 24 0 17 -4 31 -10 31
-5 0 -10 -11 -10 -24z"/>
<path d="M2778 1113 c7 -3 16 -2 19 1 4 3 -2 6 -13 5 -11 0 -14 -3 -6 -6z"/>
<path d="M8295 7270 c3 -5 10 -10 16 -10 5 0 9 5 9 10 0 6 -7 10 -16 10 -8 0
-12 -4 -9 -10z"/>
<path d="M8445 6260 c-3 -5 -12 -29 -19 -53 -11 -36 -11 -46 2 -65 13 -20 13
-28 -9 -82 -13 -33 -27 -60 -31 -60 -3 0 -9 -15 -13 -32 -12 -59 -56 -166 -78
-190 -12 -13 -30 -40 -39 -59 -10 -18 -24 -42 -30 -53 -10 -15 -10 -19 0 -23
20 -8 14 -20 -13 -27 -14 -4 -25 -11 -25 -18 0 -8 32 -9 113 -5 61 4 190 7
285 7 l172 0 -25 38 c-14 20 -29 47 -35 59 -5 12 -22 41 -37 64 -101 153 -157
275 -153 334 7 111 3 148 -15 161 -22 16 -41 18 -50 4z"/>
<path d="M508 5683 c7 -3 16 -2 19 1 4 3 -2 6 -13 5 -11 0 -14 -3 -6 -6z"/>
<path d="M822 5087 c-15 -16 -22 -36 -22 -63 0 -48 -34 -89 -82 -99 -88 -19
-112 -66 -110 -219 3 -165 39 -292 89 -315 19 -9 31 -6 67 14 25 14 51 23 58
20 7 -3 27 3 43 13 40 25 65 100 51 157 -5 22 -10 102 -10 177 l-1 136 -29 31
c-29 30 -29 31 -16 86 12 48 11 58 -1 71 -13 13 -18 12 -37 -9z"/>
<path d="M9945 5000 c3 -5 8 -10 11 -10 2 0 4 5 4 10 0 6 -5 10 -11 10 -5 0
-7 -4 -4 -10z"/>
<path d="M9916 4969 c-17 -20 -17 -21 3 -14 19 6 21 2 23 -37 1 -40 1 -41 5
-8 3 19 9 40 14 47 7 8 4 15 -9 22 -14 8 -22 5 -36 -10z"/>
<path d="M7530 4295 c0 -13 24 -55 32 -55 5 0 2 14 -7 30 -14 27 -25 38 -25
25z"/>
<path d="M6141 3754 c0 -11 3 -14 6 -6 3 7 2 16 -1 19 -3 4 -6 -2 -5 -13z"/>
<path d="M4253 3302 c-31 -21 -45 -88 -54 -263 -10 -212 -6 -328 13 -340 7 -5
31 -9 53 -9 36 0 151 -27 198 -45 14 -6 17 -1 19 21 2 49 -3 136 -12 198 -6
39 -5 93 2 157 10 88 10 100 -5 117 -9 10 -17 23 -17 29 0 5 -11 20 -25 33
-14 13 -25 29 -25 35 0 15 -77 65 -109 71 -14 2 -31 1 -38 -4z"/>
<path d="M1110 961 c8 -5 49 -14 90 -21 41 -7 99 -16 129 -21 57 -9 188 -13
180 -4 -3 2 -43 9 -89 15 -47 5 -132 17 -190 25 -126 17 -142 18 -120 6z"/>
<path d="M1645 800 c44 -4 87 -9 95 -10 8 -2 31 -2 50 0 32 2 31 3 -15 10 -27
5 -86 8 -130 7 l-80 0 80 -7z"/>
<path d="M1266 651 c-18 -7 -18 -8 -2 -14 24 -10 94 -9 100 1 2 4 -3 8 -12 8
-9 1 -28 4 -42 7 -14 3 -34 3 -44 -2z"/>
<path d="M5476 491 c-3 -4 -28 -8 -57 -10 -29 -1 -60 -6 -70 -12 -10 -5 -29
-9 -43 -9 -19 0 -26 -5 -26 -20 0 -13 -9 -22 -26 -26 -17 -5 -22 -9 -13 -14
16 -10 -12 -84 -46 -120 -13 -14 -28 -36 -33 -50 -13 -36 -15 -167 -3 -175 6
-3 11 -17 11 -31 l0 -24 1615 0 c1696 0 1650 -1 1600 40 -8 7 -15 19 -15 26 0
8 7 14 15 14 8 0 15 7 15 15 0 8 -6 15 -14 15 -21 0 -25 11 -31 74 -4 54 -4
56 20 56 14 0 25 4 25 8 0 5 26 14 58 21 91 20 94 21 83 35 -6 7 -8 16 -4 19
3 4 -16 7 -43 8 -63 1 -135 8 -204 20 -98 17 -213 28 -305 30 -49 1 -94 5
-100 9 -32 24 -262 41 -480 35 -200 -6 -284 -1 -530 31 -109 15 -230 18 -735
19 -426 1 -613 5 -632 13 -15 6 -29 8 -32 3z"/>
<path d="M8560 305 c0 -8 7 -15 15 -15 8 0 15 7 15 15 0 8 -7 15 -15 15 -8 0
-15 -7 -15 -15z"/>
</g>
</svg>
