<svg width="85" height="56" viewBox="0 0 85 56" fill="none" xmlns="http://www.w3.org/2000/svg">
<path d="M42.5 39.6667C44.3786 39.6667 46.1802 39.175 47.5086 38.2999C48.837 37.4247 49.5833 36.2377 49.5833 35C49.5833 33.7624 48.837 32.5754 47.5086 31.7002C46.1802 30.825 44.3786 30.3334 42.5 30.3334C40.6213 30.3334 38.8197 30.825 37.4913 31.7002C36.1629 32.5754 35.4166 33.7624 35.4166 35C35.4166 36.2377 36.1629 37.4247 37.4913 38.2999C38.8197 39.175 40.6213 39.6667 42.5 39.6667ZM63.75 18.6667C65.6286 18.6667 67.4302 19.1584 68.7586 20.0335C70.087 20.9087 70.8333 22.0957 70.8333 23.3334V46.6667C70.8333 47.9044 70.087 49.0914 68.7586 49.9665C67.4302 50.8417 65.6286 51.3334 63.75 51.3334H21.25C19.3713 51.3334 17.5697 50.8417 16.2413 49.9665C14.9129 49.0914 14.1666 47.9044 14.1666 46.6667V23.3334C14.1666 22.0957 14.9129 20.9087 16.2413 20.0335C17.5697 19.1584 19.3713 18.6667 21.25 18.6667H24.7916V14C24.7916 10.9058 26.6573 7.93839 29.9783 5.75046C33.2992 3.56254 37.8034 2.33337 42.5 2.33337C44.8255 2.33337 47.1282 2.63514 49.2766 3.22145C51.4251 3.80775 53.3773 4.66711 55.0216 5.75046C56.666 6.83381 57.9704 8.11994 58.8603 9.5354C59.7503 10.9509 60.2083 12.468 60.2083 14V18.6667H63.75ZM42.5 7.00004C39.682 7.00004 36.9795 7.73754 34.9869 9.05029C32.9944 10.363 31.875 12.1435 31.875 14V18.6667H53.125V14C53.125 12.1435 52.0055 10.363 50.013 9.05029C48.0204 7.73754 45.3179 7.00004 42.5 7.00004Z" fill="#F24822"/>
</svg>
