<?xml version="1.0" encoding="utf-8"?>
<!-- Generator: Adobe Illustrator 27.5.0, SVG Export Plug-In . SVG Version: 6.00 Build 0)  -->
<svg version="1.1" xmlns="http://www.w3.org/2000/svg" xmlns:xlink="http://www.w3.org/1999/xlink" x="0px" y="0px"
	 viewBox="0 0 500 500" style="enable-background:new 0 0 500 500;" xml:space="preserve">
<g id="Floor">
	<path id="Floor_00000032606812681651556430000016032382254424339377_" style="fill:#FAFAFA;" d="M85.451,266.772
		c-90.875,52.467-90.873,137.533,0.005,190c90.878,52.467,238.217,52.467,329.092,0c90.875-52.467,90.873-137.533-0.005-190
		C323.666,214.305,176.326,214.305,85.451,266.772z"/>
</g>
<g id="Shadows_00000054974893652862584350000013514191653816804247_">
	<g id="Shadows">
		<path id="Shadow_00000027595757223703909340000017785318135281232527_" style="fill:#E0E0E0;" d="M78.876,449.195
			c-7.045,0-13.722-1.615-18.8-4.548L41.77,434.094c-5.687-3.283-8.819-7.861-8.819-12.888c0-5.029,3.132-9.605,8.819-12.888
			l146.973-84.814c5.079-2.933,11.756-4.548,18.801-4.548c7.044,0,13.721,1.615,18.799,4.546l18.311,10.557
			c5.687,3.284,8.818,7.862,8.818,12.889s-3.131,9.604-8.818,12.887L97.674,444.649C92.596,447.581,85.921,449.195,78.876,449.195z"
			/>
		
			<ellipse id="Shadow_00000145054182504313082410000000501449386686203278_" style="fill:#E0E0E0;" cx="392.095" cy="391.034" rx="63.666" ry="36.758"/>
	</g>
</g>
<g id="Lines">
	<g id="Lines_00000083783610527653894730000015747851273405320349_">
		<path style="fill:#E0E0E0;" d="M231.809,177.074c-0.339,0-0.681-0.105-0.974-0.322c-0.728-0.539-0.881-1.566-0.342-2.293
			l16.571-22.38c0.539-0.728,1.565-0.88,2.293-0.342c0.728,0.539,0.881,1.566,0.342,2.294l-16.571,22.38
			C232.807,176.845,232.311,177.074,231.809,177.074z"/>
		<path style="fill:#E0E0E0;" d="M243.72,192.501c-0.541,0-1.071-0.268-1.384-0.758c-0.487-0.764-0.263-1.777,0.5-2.264
			l24.884-15.874c0.766-0.488,1.777-0.262,2.264,0.5c0.487,0.764,0.264,1.777-0.5,2.264L244.6,192.244
			C244.327,192.419,244.021,192.501,243.72,192.501z"/>
		<path style="fill:#E0E0E0;" d="M213.194,171.575c-0.146,0-0.294-0.02-0.441-0.061c-0.872-0.243-1.382-1.147-1.14-2.02
			l7.711-27.679c0.244-0.873,1.15-1.383,2.02-1.14c0.873,0.243,1.382,1.147,1.14,2.02l-7.712,27.679
			C214.571,171.1,213.912,171.575,213.194,171.575z"/>
	</g>
</g>
<g id="Speech_Bubble">
	<g id="Speech_Bubble_00000000196548028598287650000011699912661984371131_">
		<g id="Speech_Bubble_00000119818271914486440590000012669386726797836442_">
			<path style="fill:#FFFFFF;" d="M335.737,67.751c6.038,3.628,10.115,9.286,11.91,15.581l0.667,2.983
				c0.997,6.035-0.051,12.442-3.443,18.086c-7.584,12.622-24.023,16.721-36.645,9.137c-5.645-3.391-9.578-8.557-11.531-14.353
				l-0.812-2.947c-1.37-6.401-0.427-13.311,3.201-19.349C306.671,64.263,323.11,60.164,335.737,67.751z"/>
			<path style="fill:#455A64;" d="M297.121,75.766c-8.204,13.708-3.725,31.537,9.984,39.741c12.299,7.36,27.906,4.504,36.911-6.06
				l8.871,1.519c1.515,0.259,2.556-1.481,1.612-2.693l-5.531-7.1c5.052-12.928,0.193-28.03-12.105-35.39
				C323.153,57.579,305.324,62.058,297.121,75.766z M335.7,67.725c6.045,3.617,10.131,9.268,11.938,15.56l0.672,2.982
				c1.007,6.032-0.029,12.441-3.411,18.092c-7.561,12.635-23.994,16.763-36.629,9.202c-5.651-3.382-9.593-8.54-11.556-14.332
				l-0.817-2.946c-1.382-6.399-0.451-13.309,3.167-19.354C306.627,64.288,323.06,60.16,335.7,67.725z"/>
		</g>
		<g id="Check_00000143594644156333776170000012865449018300003775_">
			<path style="fill:#BA68C8;" d="M317.863,106.484c-1.155,0-2.264-0.477-3.057-1.325l-9.494-10.137
				c-1.581-1.688-1.494-4.339,0.194-5.92c1.689-1.582,4.34-1.493,5.92,0.194l6.166,6.584l14.588-18.478
				c1.431-1.816,4.064-2.127,5.883-0.692c1.816,1.434,2.126,4.068,0.692,5.883l-17.605,22.299c-0.756,0.958-1.892,1.538-3.11,1.589
				C317.981,106.483,317.921,106.484,317.863,106.484z"/>
		</g>
	</g>
</g>
<g id="Character">
	<g id="Character_00000036245272226075203900000015588303787855409079_">
		<g id="Bottom_00000156561774381887455020000008471998217206752671_">
			<g id="Bottom_00000156554778293424068730000002331798239773292971_">
				<g>
					<polygon style="fill:#263238;" points="377.767,384.372 374.145,382.474 377.827,381.615 					"/>
					<path style="fill:#263238;" d="M340.89,389.694c0,0,44.305-17.607,44.738-14.726c0.095,0.635,0.053,1.203-0.088,1.72
						c0.039-0.051,0.087-0.1,0.123-0.15l-1.008,5.31c0,0-3.216,2.479-6.888,2.525c0.006-0.258,0.04-1.848,0.06-2.756
						c-1.201,0.441-2.441,0.97-3.919,1.85c-2.862,1.702-4.778,4.788-7.882,8.341c-2.263,2.589-6.161,3.697-11.897,4.283
						c-6.173,0.631-11.54-0.711-13.004-2.372C339.957,392.394,340.655,390.059,340.89,389.694z"/>
					<path style="fill:#FFBDA7;" d="M342.131,388.748c0.436-0.413,2.054-2.026,4.226-3.769c1.899-1.524,4.12-3.457,6.487-4.997
						c0.945-0.614,2.397-1.601,3.219-2.4c0.79-0.768,1.55-1.566,2.259-2.405c1.963-2.324,3.626-4.876,5.072-7.529
						c1.244-2.284,1.571-3.907,1.558-6.492c-0.033-6.325-0.322-12.66-1.174-18.935l20.999,0.332
						c-0.729,3.21-1.158,8.697-1.617,12.358c-0.697,5.569-0.898,6.806,1.125,12.458c0.596,1.664,1.519,3.276,1.536,5.037
						c0.029,2.862-2.369,5.249-4.998,6.554c-2.179,1.082-4.656,1.492-6.774,2.653c-2.229,1.221-3.996,3.119-5.623,4.999
						c-1.536,1.775-2.796,3.893-4.902,5.105c-2.335,1.343-4.526,1.71-7.19,2.138c-3.063,0.493-6.965,0.419-9.554,0.128
						C342.269,393.476,338.961,391.753,342.131,388.748z"/>
					<g>
						<g>
							<path style="fill:#37474F;" d="M359.474,380.612c-3.107-1.736-6.005-1.172-6.737-0.84c-3.308,2.364-6.052,4.473-7.988,5.945
								c-2.351,1.788-4.411,3.423-4.409,5.564c0.003,3.362,13.35,4.85,20.951,1.933c3.944-1.19,5.456-4.317,5.456-4.317
								S365.823,384.159,359.474,380.612z M385.371,369.458c-1.06-2.201-1.454-3.318-1.454-3.318
								c-2.651,1.284-7.414,7.454-5.581,13.894c2.385-0.52,4.733-1.316,6.722-4.106C386.563,373.82,386.431,371.659,385.371,369.458
								z"/>
						</g>
					</g>
				</g>
				<g>
					<path style="fill:#263238;" d="M417.759,373.753c-1.235,1.921,0.366,9.168,0.084,14.326c-0.257,4.687-1.546,12.856-0.06,17.486
						c1.761,5.488,5.343,11.855,12.001,6.714c4.127-3.186,6.492-7.305,7.055-14.052c0.391-4.689-1.54-11.175-3.199-16.927
						c-1.937-6.719-2.675-10.311-2.675-10.311L417.759,373.753z"/>
					<path style="fill:#FFBDA7;" d="M431.428,339.179c0.476,10.933-0.837,18.609-0.913,25.612c0.075,3.26,0.298,6.013,1.029,9.455
						c0.948,4.466,2.556,10.677,3.233,13.573c0.945,4.045,1.661,6.595,0.218,11.132c-0.112,0.353-0.281,0.692-0.472,1.024
						c-2.016,3.739-7.14,6.563-8.781,6.111c-0.458,0.737-1.621,1.182-2.885,0.977c-0.18-0.029-0.363-0.072-0.546-0.129
						c-0.183-0.057-0.366-0.128-0.548-0.214c-1.09-0.519-2.126-1.589-2.728-3.437c-0.101-0.308-0.189-0.637-0.263-0.989
						c-1.193-5.633-0.327-9.272-0.215-11.475c0.13-2.542-0.023-5.779-0.254-9.881c-0.231-4.102-1.239-16.981-2.71-23.139
						c-1.092-4.298-2.454-9.689-3.89-15.437L431.428,339.179z"/>
					<path style="fill:#37474F;" d="M435.775,393.085c-4.042-1.727-15.758-1.968-17.626,3.557
						c-0.048,5.202-0.081,8.728,3.311,13.255c4.506,6.015,10.387-0.362,12.641-4.411
						C436.355,401.437,436.326,395.887,435.775,393.085z"/>
				</g>
				<path style="fill:#37474F;" d="M416.149,196.382c5.708,9.912,10.313,18.267,11.799,44.452
					c1.678,29.55,1.428,40.804,1.574,44.371c0.146,3.567,2.519,10.107,4.534,27.669c2.015,17.562-0.108,60.139-0.108,60.139
					s-1.426,2.868-8.359,3.52c-6.396,0.601-10.151-1.574-10.151-1.574s-12.352-53.275-14.798-63.857
					c-3.457-14.955-8.545-44.596-8.545-44.596l-3.124,24.914c0,0,2.025,9.685,0.189,25.111c-1.836,15.426-5.24,44.935-5.24,44.935
					s-4.021,2.74-9.463,3.33c-6.179,0.669-10.345-2.162-10.345-2.162s-6.197-61.142-6.328-78.611
					c-0.132-17.469,1.26-61.06,6.741-86.963L416.149,196.382z"/>
				<path style="fill:#263238;" d="M368.159,222.116c2.773,7.195,12.706,12.176,17.062,13.155l4.464,30.874l-0.714,25.275
					l3.124-24.914l-5.118-36.898C386.977,229.608,374.912,228.859,368.159,222.116z M409.381,218.306
					c0.734,2.83,1.4,5.679,2.11,8.524c0.695,2.85,1.394,5.697,2.144,8.566c0.045-2.964-0.246-5.914-0.669-8.835
					c-0.414-2.925-1.008-5.823-1.718-8.696c-0.745-2.864-1.594-5.709-2.672-8.481c-1.07-2.77-2.32-5.498-3.975-7.993
					c0.932,2.818,1.763,5.619,2.553,8.436C407.924,212.647,408.682,215.467,409.381,218.306z M414.466,212.811
					c0.994,1.701,1.938,3.426,2.892,5.152l2.814,5.272c-0.191-2.011-0.737-3.971-1.442-5.858c-0.697-1.895-1.595-3.71-2.585-5.469
					c-1.021-1.743-2.133-3.435-3.392-5.023c-1.249-1.593-2.609-3.107-4.159-4.454c0.916,1.811,1.916,3.532,2.91,5.249
					C412.488,209.401,413.503,211.093,414.466,212.811z M410.536,292.616c-1.808-9.038-3.114-18.178-4.407-27.326
					c-1.259-9.152-2.511-18.316-3.895-27.466c0.646,9.226,1.401,18.441,2.411,27.638c0.99,9.198,2.22,18.388,4.003,27.503
					c1.903,9.092,3.819,18.111,5.851,27.146c2.004,9.032,4.13,18.041,6.379,27.031c-1.514-9.127-3.15-18.236-4.908-27.321
					C414.24,310.741,412.39,301.642,410.536,292.616z M366.904,262.173l1.376-24.108c-1.221,7.97-2.159,15.98-2.866,24.008
					c-0.683,8.039-1.335,16.044-1.299,24.189c0.342,8.103,1.038,16.1,1.779,24.129c0.736,8.021,1.63,16.027,2.667,24.021
					c-0.292-8.052-0.685-16.094-1.17-24.128l-0.718-12.048c-0.239-4.009-0.522-8.038-0.636-12.017
					c-0.098-3.962,0.117-7.992,0.276-12C366.468,270.203,366.705,266.19,366.904,262.173z"/>
			</g>
		</g>
		<g id="Top_00000088832055913662519850000015000269275569174455_">
			<g>
				<g>
					<path style="fill:#FFBDA7;" d="M299.872,168.935c0.683-0.137,1.278,0.154,2.704,0.339c-1.596-0.637-3.884-1.604-5.269-3.243
						c-0.208-0.246-0.448-0.653-0.488-0.973c-0.037-0.301-0.008-1.173,0.438-1.421c0,0-0.868-0.691-1.631-1.273
						c-0.623-0.475-1.953-1.674-0.99-2.386c0.763-0.564,2.013-0.35,3.412,0.159c-0.749-0.565-1.28-1.095-1.347-1.503
						c-0.2-1.224,0.489-1.981,3.044-1.182c2.555,0.799,8.958,3.104,13.758,2.498c0.864-0.109,2.62-0.102,3.261-0.77l0,0
						c0.884-0.921-0.729-2.057-1.401-2.544c-0.644-0.466-1.258-0.974-1.836-1.519c-0.646-0.609-1.259-1.281-1.621-2.092
						c-0.362-0.811-0.443-1.787-0.035-2.576c0.22-0.425,0.616-0.79,1.078-0.525c1.842,1.053,3.72,2.042,5.567,3.085
						c1.752,0.989,3.619,1.943,5.172,3.228c1.786,1.479,3.354,3.652,5.934,5.689c2.58,2.037,5.289,3.812,11.458,6.898
						c3.405,1.704,9.147,4.902,9.147,4.902s7.013-15.206,9.814-21.251c5.807-12.532,10.909-16.648,23.873-19.42l-7.766,23.528
						c0,0-5.417,24.309-7.838,32.368c-2.421,8.059-5.763,10.016-8.585,10.301l0,0l0,0c-8.857,0.783-17.611-8.933-33.202-22.52
						c-1.27-1.107-4.222-3.165-8.402-2.648c-1.638,0.202-3.491,0.303-4.576,0.384c-1.313,0.097-3.725-0.085-5.028-0.274
						c-2.754-0.4-2.751-0.197-6.932-2.324c-0.516-0.263-2.624-1.483-2.582-2.06C299.04,169.324,299.394,169.03,299.872,168.935z"/>
					<path style="fill:#F0997A;" d="M302.576,169.274c1.283,0.324,2.539,0.594,3.832,0.715c1.284,0.178,2.587,0.2,3.902,0.38
						c-1.307,0.223-2.634,0.228-3.958,0.101C305.04,170.293,303.713,169.973,302.576,169.274z"/>
					<g>
						<path style="fill:#F0997A;" d="M325.843,167.287c-0.068-0.244-0.161-0.484-0.288-0.704c-0.243-0.425-0.587-0.811-0.947-1.141
							c-0.719-0.657-1.609-1.145-2.546-1.411c-2.026-0.575-4.499-0.049-5.999,1.462c-0.042,0.042-0.059,0.246,0.044,0.204
							c1.856-0.772,3.741-1.448,5.769-0.883c1.677,0.467,2.953,1.855,3.779,3.342c0.078,0.139,0.226,0.061,0.225-0.08
							C325.881,167.787,325.923,167.573,325.843,167.287z"/>
						<path style="fill:#F0997A;" d="M310.717,163.324c-2.121-0.208-4.267-0.762-6.332-1.279c-1.981-0.496-3.935-1.138-5.882-1.746
							c-0.024-0.007-0.04,0.05-0.02,0.06c1.97,1.055,4.039,1.749,6.211,2.272c2,0.481,3.971,0.587,6.012,0.738
							C310.724,163.369,310.735,163.325,310.717,163.324z"/>
						<path style="fill:#F0997A;" d="M311.349,166.887c-2.12-0.208-4.267-0.762-6.332-1.279c-0.794-0.199-1.582-0.421-2.366-0.654
							c-0.769-0.229-1.56-0.436-2.3-0.743c-0.229-0.095-0.457-0.19-0.686-0.285c-0.294-0.122-0.564-0.27-0.878-0.339
							c-0.321-0.071-0.655-0.084-0.98-0.034c-0.03,0.005-0.07,0.032-0.051,0.056c0.414,0.001,0.822,0.108,1.206,0.264
							c0.257,0.104,0.504,0.229,0.747,0.361c0.22,0.12,0.437,0.206,0.664,0.309c0.703,0.318,1.423,0.599,2.154,0.848
							c0.919,0.313,1.854,0.575,2.798,0.803c2,0.482,3.971,0.587,6.013,0.738C311.357,166.933,311.368,166.889,311.349,166.887z"/>
					</g>
				</g>
				<g>
					<path style="fill:#37474F;" d="M383.915,133.056c-12.336,1.438-17.75,6.069-22.382,14.701
						c-3.371,6.283-11.64,25.417-11.64,25.417l-9.928-4.913c0,0,1.116,2.394-0.702,7.66c-1.818,5.266-6.346,6.91-6.346,6.91
						s6.923,6.9,12.953,11.296c6.029,4.395,11.796,7.368,16.657,4.508c4.862-2.861,6.147-8.453,7.879-15.081
						c1.732-6.628,6.278-27.222,6.278-27.222L383.915,133.056z"/>
					<path style="fill:#263238;" d="M362.238,186.397c-2.294-5.37-7.425-11.454-12.345-13.223c0,0,0.429-0.989,1.031-2.371
						C358.507,173.828,361.159,181.289,362.238,186.397z"/>
				</g>
			</g>
			<path style="fill:#263238;" d="M422.846,139.945H402.22c-0.632-9.133-0.191-18.315,0.49-27.448
				c0.486-6.52,1.088-13.031,1.817-19.528c0.185-1.648,0.397-3.351,1.248-4.774c1.867-3.121,6.444-2.66,9.394-1.619
				c3.39,1.195,6.339,3.739,7.829,7.032c1.523,3.367,1.575,7.191,1.552,10.886C424.477,116.327,423.905,128.158,422.846,139.945z"/>
			<g id="Head_00000142889157767850719440000015328823138333414048_">
				<g>
					<path style="fill:#263238;" d="M391.788,126.224c0.155,0.14,0.275,0.248,0.342,0.312c0.999,0.95,2.16,1.639,3.479,2.094
						c1.22,0.42,2.155,0.219,3.368,0.229c1.798,0.014,3.762,0.681,5.531,0.138c0.772-0.237,0.987-0.765,1.476-1.368
						c0.671-0.827,1.377-1.626,2.057-2.446c2.712-3.271,5.323-6.651,7.428-10.352c2.809-4.939,4.701-10.547,4.446-16.223
						c-0.11-2.436-0.643-4.922-2.03-6.926c-1.388-2.005-3.746-3.447-6.177-3.269c-0.287-1.581-1.784-4.492-2.999-5.543
						c-5.359-4.634-9.296-4.553-14.754-4.672c-4.214-0.091-10.207,1.443-13.799,3.649c-3.591,2.206-6.294,6.457-7.164,10.582
						c-1,4.743,1.009,8.709,3.879,11.796c2.564,2.759,6.796,4.782,7.645,8.791c0.265,1.254,0.153,2.563,0.397,3.822
						c0.493,2.549,2.359,4.579,4.147,6.462C389.01,123.729,390.933,125.454,391.788,126.224z"/>
				</g>
				<path style="fill:#FFBDA7;" d="M386.177,134.718c0,0,1.107-1.049,2.434-1.238c0.944-0.134,1.301-0.81,1.301-2.432
					c0-1.622-0.006-2.943-0.006-2.943c-3.322,0.172-6.093-0.571-8.413-2.55c-3.503-2.988-5.43-8.977-5.169-15.448
					c0.173-4.297,1.258-6.319,1.185-7.286c-0.432-5.753,0.003-6.78,1.311-9.771c2.354-4.767,8.41-6.564,11.082-1.506
					c7.435-5.935,15.822,1.66,15.604,10.541c-0.931,7.338,1.33,7.677,2.758,7.708c2.057-4.592,6.791-4.577,8.816-1.647
					c1.832,2.651,1.931,6.86-1.606,10.554c-3.346,3.494-7.019,1.265-7.197,0.008c0,0-0.441,10.52-0.496,12.492
					c-0.054,1.971,0.363,4.151,2.822,4.933c0.008,0.002-0.008-0.003,0,0c2.508,0.796,3.103,1.324,3.103,1.324
					s-0.546,0.405-0.924,0.829c-0.871,1.041-2.171,1.963-5.402,5.871c-8.303,3.222-18.208,7.691-24.057,11.27
					c-2.027-4.875-3.941-12.841-3.941-12.841C382.442,138.046,386.177,134.718,386.177,134.718z"/>
				<path style="fill:#FFFFFF;" d="M409.906,116.855c0,0.958,0.777,1.734,1.734,1.734c0.958,0,1.734-0.777,1.734-1.734
					c0-0.958-0.777-1.734-1.734-1.734C410.682,115.12,409.906,115.897,409.906,116.855z"/>
				<g>
					<g>
						<path id="XMLID_00000049216243191934708650000007411638726431342774_" style="fill:#263238;" d="M380.839,98.322l4.284-1.214
							c-0.293-1.205-1.49-1.91-2.673-1.575C381.268,95.869,380.546,97.118,380.839,98.322z"/>
						<path id="XMLID_00000098207873621133061010000005666223798539757736_" style="fill:#263238;" d="M400.549,99.253l-4.149-1.766
							c0.448-1.173,1.74-1.729,2.886-1.241C400.431,96.734,400.997,98.081,400.549,99.253z"/>
						<path id="XMLID_00000057119440940002356070000015495051721016948382_" style="fill:#B16668;" d="M388.31,116.089l6.355-1.782
							c0.562,1.75-0.405,3.568-2.16,4.06C390.75,118.858,388.871,117.839,388.31,116.089z"/>
						<path style="fill:#F28F8F;" d="M394.808,115.225c0.04,1.427-0.856,2.737-2.303,3.142c-0.481,0.135-0.969,0.146-1.439,0.07
							C391.549,116.711,393.019,115.444,394.808,115.225z"/>
						<path id="XMLID_00000159470454792873311310000011126899316780086171_" style="fill:#263238;" d="M384.54,104.123
							c0.04,0.993-0.741,1.852-1.746,1.92c-1.004,0.067-1.85-0.683-1.89-1.676c-0.04-0.994,0.742-1.853,1.745-1.92
							C383.654,102.379,384.501,103.13,384.54,104.123z"/>
						<path id="XMLID_00000045601828867247891930000010786011379704266679_" style="fill:#263238;" d="M397.634,104.879
							c0.041,1.014-0.757,1.891-1.782,1.96c-1.025,0.069-1.889-0.698-1.929-1.711c-0.041-1.014,0.757-1.891,1.781-1.96
							C396.729,103.1,397.593,103.866,397.634,104.879z"/>
					</g>
					<g id="XMLID_00000160169803358969727050000018118911414810636170_">
						<path id="XMLID_00000088814181982107410540000003367001003012544415_" style="fill:#F0997A;" d="M389.906,128.105
							c7.078-0.455,13.918-2.15,15.795-6.4c0,0-0.106,3.829-4.234,5.872c-5.96,2.95-11.557,2.698-11.557,2.698L389.906,128.105z"/>
					</g>
				</g>
				<path style="fill:#37474F;" d="M373.726,100.062c-0.017,0.716,0.407,1.399,0.631,1.687c0.118,0.152,0.221,0.35,0.261,0.603
					c0.181,1.14,0.215,3.29,0.671,4.514c0.458,1.224,1.475,3.176,4.872,3.388c0.661,0.043,1.253,0.017,1.782-0.065
					c0.046-0.006,0.092-0.014,0.136-0.021c0.563-0.096,1.056-0.257,1.491-0.465c0.411-0.197,0.828-0.465,1.172-0.776
					c0.555-0.485,0.979-1.064,1.328-1.651c0.909-1.531,0.938-3.725,2.197-3.927c0.047-0.007,0.099-0.013,0.15-0.014
					c0.051-0.003,0.104-0.002,0.16,0c1.674,0.091,1.245,2.465,2.009,4.202c0.762,1.74,2.144,3.464,5.775,3.66
					c1.322,0.076,2.713-0.118,3.837-0.8c0.222-0.133,0.421-0.276,0.616-0.439c0.599-0.502,0.988-1.07,1.263-1.534
					c0.685-1.157,1.051-3.289,1.446-4.39c0.105-0.293,0.225-0.494,0.344-0.632c0.268-0.313,0.887-0.85,0.982-1.563
					c0.095-0.714-0.385-1.358-0.87-1.444c-0.281-0.05-0.576-0.099-0.88-0.146c-2.837-0.439-6.565-0.734-8.861-0.264
					c-2.879,0.595-3.937,1.387-5.5,1.303c-1.46-0.092-2.322-0.994-4.898-1.907c-2.056-0.725-5.556-0.849-8.25-0.733
					c-0.288,0.012-0.568,0.028-0.835,0.046C374.294,98.724,373.743,99.346,373.726,100.062z M392.023,102.443
					c1.321-1.122,3.438-1.374,5.152-1.477c2.723-0.093,4.349,0.566,4.91,1.104c0.581,0.559,0.058,2.857-0.319,4.02
					c-0.264,0.854-0.639,1.731-1.248,2.416c-0.763,0.87-1.974,1.58-3.946,1.494c-1.95-0.084-3.13-0.755-3.847-1.571l-0.002-0.001
					c-0.709-0.813-0.964-1.766-1.066-2.424C391.459,104.674,391.423,103.135,392.023,102.443z M376.254,100.568
					c0.162-0.126,0.395-0.252,0.7-0.36c1.387-0.469,2.842-0.383,4.29-0.142c1.901,0.337,3.829,1.246,4.279,2
					c0.45,0.754,0.177,2.273-0.208,3.568c-0.077,0.256-0.183,0.553-0.333,0.864c-0.17,0.363-0.385,0.703-0.643,1.013
					c-0.767,0.923-2.048,1.694-4.186,1.532c-0.806-0.057-1.457-0.252-1.976-0.532c-1.823-0.979-2.109-2.992-2.242-3.924
					C375.767,103.393,375.63,101.054,376.254,100.568z"/>
				<g>
					<path style="fill:#F0997A;" d="M383.151,110.229l6.415,2.615l0.677-6.458c-0.322-1.439-0.347-2.895-1.557-3.038
						L383.151,110.229z"/>
				</g>
				<path style="fill:#37474F;" d="M403.775,101.285l9.178,4.839c-0.728,0.103-1.409,0.202-2.398,0.822l-7.05-3.741L403.775,101.285
					z"/>
			</g>
			<g id="Chest_00000039850373778145928680000006376563309124052398_">
				<g>
					<path style="fill:#FFFFFF;" d="M365.801,183.663c0.155-3.029,0.26-7.338-0.073-11.198c0,0-4.616-4.787-4.617-10.964
						c-0.002-6.477,2.838-10.901,9.618-17.32c6.957-6.586,12.771-10.02,12.771-10.02l5.421-0.753c0,0-3.645,7.148-1.655,11.183
						c10.622-0.798,19.73-5.371,23.464-8.549l8.841,1.74c0,0,5.389,11.323,3.224,20.692c-1.172,5.071-3.503,13.66-5.394,20.472
						c-1.832,6.599-1.189,13.637,1.811,19.793c0.275,0.563,0.548,1.126,0.817,1.683c2.552,5.274,5.927,14.973,5.927,14.973
						s-14.843,6.65-39.225,3.692c-24.382-2.957-26.399-7.261-26.399-7.261l4.55-21.216
						C365.374,188.322,365.681,186.002,365.801,183.663z"/>
					<path style="fill:#E0E0E0;" d="M406.353,172.661c0,0-2.547,7.803-12.066,8.571c-8.707,0.703-12.98-6.253-12.98-6.253
						s1.471,9.923,13.246,8.638C406.311,182.333,406.353,172.661,406.353,172.661z"/>
				</g>
				<g>
					<path style="fill:#455A64;" d="M407.793,132.095c0,0-8.824,20.065-12.134,29.753c-3.31,9.688-2.09,17.584-1.662,35.362
						c0.329,13.691,1.034,34.35,1.034,34.35s25.918,0.618,34.316-10.626c-1.855-6.87-7.894-22.954-9.443-27.349
						c-1.549-4.395-0.561-8.188,2.59-18.099c3.15-9.911,7.812-15.219,7.965-22.635c0.153-7.416-6.586-14.119-8.424-15.469
						C412.114,135.083,408.206,134.431,407.793,132.095z"/>
					<path style="fill:#455A64;" d="M388.921,133.409c0,0-18.217,16.949-20.111,34.404c-1.895,17.455-4.455,55.756-4.455,55.756
						s-1.879-0.955-5.435-5.161c1.088-7.917,5.032-39.212,4.428-42.84c-0.605-3.628-8.861-12.141-0.561-23.528
						c8.3-11.386,21.128-18.984,21.128-18.984l5.925-0.961C389.841,132.714,389.465,133.259,388.921,133.409z"/>
					<path style="fill:#37474F;" d="M381.241,137.095c-1.155,0.964-2.302,1.937-3.418,2.945c-2.236,2.011-4.46,4.036-6.612,6.141
						c-1.069,1.061-2.137,2.12-3.173,3.219c-0.522,0.546-1.034,1.102-1.534,1.682c-0.481,0.567-1.045,1.185-1.315,2.038
						c-0.265,0.814-0.273,1.625-0.234,2.408c0.033,0.788,0.182,1.55,0.341,2.302c0.319,1.408,0.757,2.76,1.287,4.1
						c-1.214,1.447-2.384,2.909-3.15,4.742c-0.095,0.242-0.171,0.511-0.216,0.784c-0.015,0.279-0.036,0.571-0.008,0.811
						c0.023,0.51,0.09,0.995,0.146,1.486c0.134,0.974,0.287,1.939,0.457,2.9c0.669,3.847,1.509,7.652,2.425,11.44
						c-0.606-3.849-1.225-7.695-1.767-11.542c-0.132-0.962-0.248-1.925-0.343-2.885c-0.036-0.478-0.084-0.96-0.087-1.424
						c-0.02-0.474,0.027-0.834,0.206-1.263c0.714-1.671,1.98-3.218,3.22-4.641l0.193-0.222l-0.108-0.276
						c-0.533-1.36-0.976-2.792-1.28-4.222c-0.149-0.716-0.262-1.439-0.305-2.151c-0.048-0.709-0.037-1.431,0.162-2.052
						c0.17-0.595,0.624-1.143,1.105-1.714c0.474-0.563,0.973-1.119,1.481-1.665c1.011-1.099,2.062-2.168,3.112-3.236
						c2.101-2.137,4.215-4.268,6.377-6.348c2.163-2.079,4.297-4.192,6.59-6.134C383.557,135.173,382.398,136.136,381.241,137.095z"
						/>
					<path style="fill:#37474F;" d="M411.22,161.502l0.088-2.383l0.175-4.766c0.183-6.356,0.351-11.584,0.375-17.957
						c-0.517,6.349-0.89,11.583-1.249,17.949l-0.231,4.775l-0.115,2.388l-0.03,0.589c-0.005,0.149-0.032,0.297-0.075,0.444
						c-0.098,0.293-0.286,0.576-0.519,0.836c-0.978,1.042-2.453,1.705-3.875,2.293c-1.447,0.571-2.968,1.03-4.482,1.381
						l-0.523,0.121l0.174,0.5c0.684,1.956,1.317,3.955,1.768,5.966c0.109,0.502,0.211,1.008,0.274,1.505
						c0.073,0.488,0.102,1.023,0.008,1.382l-0.032,0.13l-0.094,0.172l-1.316,2.413c-0.997,1.841-2.018,3.671-2.99,5.527
						l-2.929,5.564l3.283-5.365c1.099-1.787,2.149-3.601,3.222-5.402l0.801-1.353l0.4-0.676l0.301-0.508l0.091-0.244
						c0.189-0.648,0.134-1.19,0.086-1.733c-0.046-0.545-0.145-1.07-0.253-1.592c-0.407-1.915-0.96-3.766-1.569-5.61
						c1.409-0.33,2.787-0.727,4.143-1.243c1.503-0.598,3.032-1.274,4.248-2.574c0.292-0.335,0.556-0.726,0.706-1.193
						c0.07-0.236,0.111-0.48,0.114-0.731L411.22,161.502z"/>
				</g>
			</g>
			<g id="Key">
				<g>
					<g>
						<g>
							<g>
								<polygon style="fill:#BA68C8;" points="259.369,144.076 265.4,147.558 265.4,164.726 259.369,161.244 								"/>
								<polygon style="opacity:0.3;fill:#FFFFFF;" points="259.369,144.076 265.4,147.558 265.4,164.726 259.369,161.244 								
									"/>
							</g>
							<polygon style="fill:#BA68C8;" points="259.369,144.076 265.4,147.558 267.593,146.292 261.562,142.81 							"/>
							<g>
								<polygon style="fill:#BA68C8;" points="265.4,164.726 267.627,163.46 267.593,146.292 265.4,147.558 								"/>
							</g>
						</g>
						<g>
							<g>
								<polygon style="fill:#BA68C8;" points="270.202,150.35 276.233,153.832 276.233,160.92 270.202,157.438 								"/>
								<polygon style="opacity:0.3;fill:#FFFFFF;" points="270.202,150.35 276.233,153.832 276.233,160.92 270.202,157.438 
																	"/>
							</g>
							<polygon style="fill:#BA68C8;" points="270.202,150.35 276.233,153.832 278.426,152.566 272.395,149.084 							"/>
							<g>
								<polygon style="fill:#BA68C8;" points="276.233,160.92 278.46,159.654 278.426,152.566 276.233,153.832 								"/>
							</g>
						</g>
						<g>
							<g>
								<polygon style="fill:#BA68C8;" points="282.444,157.438 282.444,150.475 254.762,134.441 254.762,141.405 								"/>
								<polygon style="opacity:0.3;fill:#FFFFFF;" points="282.444,157.438 282.444,150.475 254.762,134.441 254.762,141.405 
																	"/>
							</g>
							<polygon style="fill:#BA68C8;" points="282.444,157.438 282.444,150.475 284.637,149.208 284.637,156.172 							"/>
							<g>
								<polygon style="fill:#BA68C8;" points="254.762,134.441 256.955,133.175 284.637,149.208 282.444,150.475 								"/>
								<polygon style="opacity:0.3;fill:#FFFFFF;" points="254.762,134.441 256.955,133.175 284.637,149.208 282.444,150.475 
																	"/>
							</g>
						</g>
					</g>
					<g>
						<path style="fill:#BA68C8;" d="M353.49,182.414l-4.341,7.515l-96.11-55.513c-0.065-0.022-0.13-0.065-0.194-0.108
							c-0.594-0.389-0.972-1.296-0.972-2.559c0-2.214,1.166-4.675,2.602-5.507c0.529-0.302,1.026-0.346,1.436-0.162
							c0.054,0.021,0.108,0.054,0.162,0.086L353.49,182.414z"/>
						<path style="opacity:0.3;fill:#FFFFFF;" d="M353.49,182.414l-4.341,7.515l-96.11-55.513c-0.065-0.022-0.13-0.065-0.194-0.108
							c-0.594-0.389-0.972-1.296-0.972-2.559c0-2.214,1.166-4.675,2.602-5.507c0.529-0.302,1.026-0.346,1.436-0.162
							c0.054,0.021,0.108,0.054,0.162,0.086L353.49,182.414z"/>
					</g>
					<path style="opacity:0.6;fill:#BA68C8;" d="M251.914,131.102c-0.021,0.217-0.041,0.434-0.041,0.647
						c0,1.263,0.378,2.17,0.972,2.559c0.065,0.043,0.13,0.086,0.194,0.108l96.11,55.513l1.163-2.013L251.914,131.102z"/>
					<g>
						<g>
							<polygon style="fill:#BA68C8;" points="277.125,141.62 277.125,134.656 262.273,126.042 262.273,133.006 							"/>
							<polygon style="opacity:0.5;fill:#FFFFFF;" points="277.125,141.62 277.125,134.656 262.273,126.042 262.273,133.006 							
								"/>
						</g>
						<polygon style="fill:#BA68C8;" points="277.125,141.62 277.125,134.656 279.318,133.389 279.318,140.353 						"/>
						<g>
							<polygon style="fill:#BA68C8;" points="262.273,126.042 264.466,124.776 279.318,133.389 277.125,134.656 							"/>
							<polygon style="opacity:0.3;fill:#FFFFFF;" points="262.273,126.042 264.466,124.776 279.318,133.389 277.125,134.656 
															"/>
						</g>
					</g>
				</g>
				<g>
					<g>
						<path style="fill:#BA68C8;" d="M379.794,231.883c-3.285,0-6.774-1.016-10.27-3.034c-12.639-7.298-22.54-26.045-22.54-42.679
							c0-9.477,3.357-16.851,9.21-20.231c5.096-2.94,11.37-2.56,17.666,1.074c12.639,7.297,22.54,26.044,22.54,42.679
							c0,9.477-3.357,16.851-9.21,20.231C384.923,231.231,382.423,231.883,379.794,231.883z M363.618,172.654
							c-1.057,0-2.108,0.228-3.09,0.795c-3.052,1.762-4.874,6.518-4.874,12.721c0,13.366,8.337,29.472,18.204,35.169
							c2.476,1.43,6.046,2.776,8.995,1.074c3.052-1.762,4.874-6.518,4.874-12.721c0-13.367-8.336-29.473-18.204-35.169
							C367.872,173.57,365.733,172.654,363.618,172.654z"/>
					</g>
					<path style="opacity:0.3;fill:#FFFFFF;" d="M373.855,167.017c-6.295-3.639-12.568-4.017-17.665-1.08
						c-5.852,3.38-9.21,10.754-9.21,20.235c0,16.628,9.901,35.384,22.545,42.672c3.498,2.019,6.986,3.034,10.268,3.034
						c2.635,0,5.129-0.648,7.396-1.954c5.852-3.38,9.21-10.755,9.21-20.235C396.4,193.061,386.499,174.316,373.855,167.017z
						 M382.849,222.408c-2.948,1.706-6.511,0.356-8.994-1.069c-9.858-5.701-18.205-21.8-18.205-35.168
						c0-6.209,1.825-10.96,4.88-12.72c0.983-0.572,2.03-0.799,3.088-0.799c2.116,0,4.254,0.918,5.906,1.868
						c9.869,5.701,18.205,21.8,18.205,35.168C387.73,215.898,385.905,220.648,382.849,222.408z"/>
					<g>
						<path style="opacity:0.6;fill:#BA68C8;" d="M373.855,221.34c-9.858-5.701-18.205-21.8-18.205-35.168
							c0-6.209,1.825-10.96,4.88-12.72c0.533-0.311,1.087-0.512,1.649-0.638c-0.997,0.182-1.986,0.53-2.933,1.133
							c-3.544,2.236-5.808,7.451-6.056,13.961c-0.535,14.016,8.308,29.828,19.285,34.545c2.568,1.093,6.196,1.994,9.439,0.384
							C379.174,223.827,376.081,222.617,373.855,221.34z"/>
					</g>
					<path style="opacity:0.2;fill:#FFFFFF;" d="M363.096,165.467c7.553-0.988,28.351,10.199,31.709,39.398
						C390.743,189.344,381.914,172.073,363.096,165.467z"/>
				</g>
			</g>
			<g id="Arm_00000120548096403616562280000007149191677678592403_">
				<g id="Arm_00000104681500553736682980000004542412975216526753_">
					<g>
						<path style="fill:#FFBDA7;" d="M422.441,194.171c-5.829,1.645-12.214,3.373-13.475,3.779
							c-2.727,0.879-4.145,0.109-5.744-0.923c-1.952-1.259-4.246-2.865-5.169-3.556c-0.947-0.709-2.685-2.032-3.979-2.055
							c-1.051-0.018-3.547,1.527-5.801,2.742c-2.254,1.215-3.549,2.377-4.53,3.447c-0.98,1.071-3.409,4.882-3.452,6.211
							c-0.044,1.328,1.335,1.798,2.769,1.023c1.259-0.68,2.85-3.364,4.32-4.268c1.471-0.904,5.45-2.811,5.45-2.811
							s-4.718,3.15-5.321,3.676c-0.603,0.525-2.32,2.708-2.911,3.393c-0.592,0.685-1.292,2.454-0.951,2.986
							c0.341,0.532,1.26,1.361,1.881,1.192c0.62-0.168,1.074-0.483,1.074-0.483s0.162,0.619,0.503,1.15
							c0.341,0.532,0.633,0.661,0.633,0.661s-0.059,0.837,0.786,1.441c0.655,0.467,1.338,0.48,1.876,0.479
							c1.558-0.004,2.399-0.215,4.037-0.609c3.001-0.722,4.354-0.776,7.337,0.682c2.304,1.126,5.246,1.427,7.503,0.788
							c1.388-0.393,4.307-1.271,10.1-1.826c0.947-0.091,1.98-0.171,3.065-0.248V194.171z"/>
						<path style="fill:#F0997A;" d="M385.527,209.007c-0.269,0.073-0.593-0.046-0.903-0.243c0.009,0,0.575-0.018,1.613-0.721
							c1.047-0.71,3.495-3.222,5.319-4.226c1.824-1.004,3.957-1.888,4.556-2.675c-0.341,0.634-2.22,1.958-4.318,3.211
							c-2.098,1.253-5.192,4.171-5.192,4.171S386.147,208.839,385.527,209.007z"/>
						<path style="fill:#F0997A;" d="M390.149,209.639c0.739-0.248,3.805-2.016,4.947-2.634c1.142-0.618,2.923-1.792,2.923-1.792
							s-1.174,1.185-2.219,1.807c-1.045,0.622-4.118,2.386-5.38,2.899c-1.263,0.513-2.074,0.523-2.681,0.418
							c0,0-0.293-0.13-0.634-0.661C388.023,210.26,389.41,209.887,390.149,209.639z"/>
					</g>
				</g>
				<path style="fill:#37474F;" d="M422.035,137.381c8.737,1.535,12.205,6.866,16.046,18.213
					c5.248,15.502,9.855,30.772,10.848,38.534l-20.611-5.637l-11.023-22.188C417.296,166.303,413.158,148.48,422.035,137.381z"/>
				<g>
					<path style="fill:#37474F;" d="M448.929,194.128c0.248,3.653-0.397,5.568-2.085,7.142c-1.687,1.573-8.635,4.849-12.903,6.337
						c-4.268,1.489-15.465,4.516-17.609,4.913c2.224-3.474,1.083-8.302-0.803-11.379c-1.886-3.077-4.09-3.906-4.09-3.906
						l16.879-8.744l1.157-9.08L448.929,194.128z"/>
				</g>
			</g>
		</g>
	</g>
</g>
<g id="Padlock">
	<g id="Padlock_1_">
		<g id="Padlock_00000076598878969821060100000001437489849855666848_">
			<path style="fill:#BA68C8;" d="M237.805,195.602c0-3.195-2.111-6.39-6.333-8.828l-12.452-7.189
				c-8.445-4.876-22.138-4.876-30.583,0L75.572,244.749c-4.227,2.441-6.338,5.641-6.332,8.84l0,0l0.001,149.067l0,0
				c-0.011,3.203,2.099,6.407,6.332,8.851l12.448,7.188c8.445,4.876,22.137,4.876,30.584,0l112.868-65.163
				c4.222-2.438,6.333-5.633,6.333-8.828l0,0V195.602L237.805,195.602z"/>
			<path style="opacity:0.3;fill:#FFFFFF;" d="M88.02,269.594l-12.448-7.187c-8.446-4.876-8.445-12.782,0-17.658l112.864-65.163
				c8.445-4.876,22.138-4.876,30.584,0l12.451,7.189c8.446,4.876,8.446,12.781,0,17.658l-112.868,65.163
				C110.158,274.47,96.465,274.47,88.02,269.594z"/>
			<path style="fill:#BA68C8;" d="M204.242,197.403c5.043,2.911,5.043,7.632,0,10.543c-5.043,2.911-13.218,2.911-18.261,0
				c-5.043-2.911-5.043-7.632,0-10.543C191.024,194.491,199.199,194.491,204.242,197.403z"/>
			<path style="opacity:0.2;" d="M204.242,197.403c5.043,2.911,5.043,7.632,0,10.543c-5.043,2.911-13.218,2.911-18.261,0
				c-5.043-2.911-5.043-7.632,0-10.543C191.024,194.491,199.199,194.491,204.242,197.403z"/>
			<path style="opacity:0.2;" d="M185.981,207.82c-0.035,0.02-0.064,0.043-0.099,0.063c0.035,0.02,0.064,0.043,0.099,0.063
				c5.043,2.911,13.218,2.911,18.261,0c0.035-0.02,0.064-0.043,0.099-0.063c-0.035-0.02-0.064-0.043-0.099-0.063
				C199.199,204.908,191.024,204.908,185.981,207.82z"/>
			<path style="opacity:0.2;" d="M103.329,273.245v149.1c-5.545,0-11.09-1.201-15.292-3.638l-12.466-7.204
				c-4.237-2.437-6.356-5.651-6.321-8.864V253.575c0,3.214,2.084,6.392,6.321,8.829l12.466,7.204
				C92.239,272.045,97.784,273.245,103.329,273.245z"/>
			<g id="XMLID_00000040553773914702970400000006120095869305273233_">
				<path id="XMLID_00000090294452282893482060000016832655721773391034_" style="fill:#37474F;" d="M185.463,346.996l-26.949,15.56
					l4.176-48.75c-3.223-1.704-5.277-5.898-5.277-11.92c0-10.734,6.527-23.204,14.578-27.853
					c8.049-4.647,14.576,0.287,14.576,11.021c0,6.021-2.054,12.587-5.278,18.013L185.463,346.996z"/>
				<polygon id="XMLID_1130_" style="fill:#263238;" points="185.463,346.996 161.054,332.904 158.514,362.555 				"/>
				<path id="XMLID_00000136384097020060272290000012227702100939838861_" style="fill:#263238;" d="M171.99,274.033
					c-5.268,3.042-9.869,9.435-12.43,16.496l21.729,12.545l0-0.007c3.223-5.426,5.278-11.992,5.278-18.013
					C186.565,274.32,180.038,269.386,171.99,274.033z"/>
			</g>
			<g>
				<path style="fill:#F0F0F0;" d="M207.307,128.418v-19.954c0-18.462-6.978-33.079-19.143-40.103
					c-11.611-6.704-25.97-5.796-40.438,2.556c-26.572,15.342-47.387,52.776-47.387,85.221v90.773h-0.004
					c0.001,1.801,1.201,3.601,3.581,4.975c4.76,2.748,12.477,2.748,17.237,0c2.379-1.374,3.581-3.175,3.581-4.975h-0.001v-90.773
					c0-23.73,16.115-53.082,35.19-64.095c6.503-3.755,12.35-4.687,16.045-2.557c4.349,2.512,6.946,9.606,6.946,18.978v19.954h-0.002
					c0,0.003,0.002,0.005,0.002,0.008v0.034h0.005c0.019,1.786,1.213,3.57,3.574,4.933c4.76,2.748,12.476,2.749,17.236,0
					c2.362-1.363,3.556-3.146,3.575-4.933h0.004v-0.023c0-0.006,0.003-0.013,0.003-0.019H207.307z"/>
				<path style="fill:#E0E0E0;" d="M171.364,65.811c5.705,0,11.039,1.409,15.853,4.189c11.564,6.677,18.197,20.696,18.197,38.464
					v19.584l-0.004,0.393c-0.012,1.149-0.97,2.356-2.628,3.313c-1.99,1.149-4.786,1.808-7.671,1.808
					c-2.886,0-5.682-0.659-7.672-1.808c-1.658-0.957-2.615-2.165-2.628-3.314l-0.005-0.375v-19.601
					c0-10.206-2.877-17.721-7.894-20.618c-1.582-0.912-3.463-1.375-5.591-1.375c-3.621,0-7.89,1.36-12.345,3.932
					c-19.588,11.309-36.136,41.412-36.136,65.734l0.001,90.773c0,1.153-0.96,2.369-2.635,3.336c-1.99,1.148-4.786,1.807-7.671,1.807
					c-2.886,0-5.683-0.659-7.672-1.807c-1.614-0.932-2.565-2.097-2.631-3.214v-0.122v-90.773c0-31.833,20.399-68.547,46.44-83.582
					C156.425,68.08,164.06,65.811,171.364,65.811L171.364,65.811 M171.364,63.918c-7.541,0-15.573,2.343-23.638,6.999
					c-26.572,15.342-47.387,52.776-47.387,85.221v90.773h-0.004c0.001,1.801,1.201,3.601,3.581,4.975
					c2.38,1.374,5.499,2.061,8.619,2.061c3.119,0,6.238-0.687,8.618-2.061c2.379-1.374,3.581-3.175,3.581-4.975h-0.001v-90.773
					c0-23.73,16.115-53.082,35.19-64.095c4.21-2.431,8.145-3.679,11.399-3.679c1.773,0,3.343,0.37,4.646,1.122
					c4.349,2.512,6.946,9.606,6.946,18.978v19.954h-0.002c0,0.003,0.002,0.005,0.002,0.008v0.034h0.005
					c0.019,1.786,1.213,3.57,3.574,4.933c2.38,1.374,5.499,2.061,8.618,2.061c3.119,0,6.238-0.687,8.618-2.061
					c2.362-1.363,3.556-3.146,3.575-4.933h0.004v-0.023c0-0.006,0.003-0.013,0.003-0.019h-0.003v-19.954
					c0-18.462-6.978-33.079-19.143-40.103C183.025,65.394,177.349,63.918,171.364,63.918L171.364,63.918z"/>
			</g>
			<g>
				<path style="fill:#E0E0E0;" d="M158.882,67.915c-1.291,0.609-3.768,2.031-5.059,2.783
					c-26.564,15.344-46.207,53.391-46.207,85.835v87.462c0,1.828,1.184,3.621,3.585,4.983c3.12,1.792,7.457,2.438,11.4,1.864
					c-0.394,0.395-0.896,0.717-1.434,1.04c-4.768,2.76-12.476,2.76-17.244,0c-2.401-1.362-3.585-3.155-3.585-4.983v-87.498
					c0-32.444,20.829-71.153,47.393-86.498C151.46,70.753,155.189,69.026,158.882,67.915z"/>
			</g>
		</g>
	</g>
</g>
<g id="Plants">
	<g id="Plants_00000183229338069000493160000007313730273243494020_">
		<g id="XMLID_348_">
			<path style="fill:#BA68C8;" d="M83.494,416.058l-19.14,11.049c0.255-6.831,0.85-16.991-0.093-23.83
				c-5.78-41.834-22.076-55.626-29.826-75.987c-8.16-21.442,1.793-28.342,14.72-24.487c11.529,3.439,28.211,20.5,33.465,51.716
				C86.113,375.291,85.495,397.845,83.494,416.058z"/>
			<path style="opacity:0.65;fill:#FFFFFF;" d="M83.494,416.058l-19.14,11.049c0.255-6.831,0.85-16.991-0.093-23.83
				c-5.78-41.834-22.076-55.626-29.826-75.987c-8.16-21.442,1.793-28.342,14.72-24.487c11.529,3.439,28.211,20.5,33.465,51.716
				C86.113,375.291,85.495,397.845,83.494,416.058z"/>
			<g id="XMLID_00000080898243469668363840000017540056922479302326_">
				<path style="fill:#FFFFFF;" d="M73.348,421.915l-1.916,1.105c6.846-48.772-9.829-91.07-26.287-108.54
					c-0.317-0.332-0.301-0.865,0.031-1.182c0.348-0.317,0.873-0.301,1.19,0.031C62.817,330.807,79.484,373.39,73.348,421.915z"/>
			</g>
		</g>
		<g id="XMLID_342_">
			<path style="fill:#BA68C8;" d="M69.732,424.001l-10.771,6.22h-0.008c-5.726-16.86-11.606-23.613-18.908-34.702
				c-6.653-10.091-14.388-16.342-18.498-23.436c-3.639-6.282-6.375-14.171-0.966-18.947c8.608-7.603,19.843,0.44,27.57,9.133
				C54.827,369.789,68.256,389.786,69.732,424.001z"/>
			<path style="opacity:0.3;fill:#FFFFFF;" d="M69.732,424.001l-10.771,6.22h-0.008c-5.726-16.86-11.606-23.613-18.908-34.702
				c-6.653-10.091-14.388-16.342-18.498-23.436c-3.639-6.282-6.375-14.171-0.966-18.947c8.608-7.603,19.843,0.44,27.57,9.133
				C54.827,369.789,68.256,389.786,69.732,424.001z"/>
			<g id="XMLID_00000075145034184135950570000005791698602273678005_">
				<path style="fill:#FFFFFF;" d="M65.313,426.551l-1.569,0.912c-4.52-26.666-22.632-57.519-33.89-64.806
					c-0.394-0.255-0.51-0.788-0.247-1.19c0.255-0.402,0.78-0.518,1.182-0.255C42.441,368.769,60.514,399.476,65.313,426.551z"/>
			</g>
		</g>
	</g>
</g>
</svg>
