<svg width="51" height="36" viewBox="0 0 51 36" fill="none" xmlns="http://www.w3.org/2000/svg">
<path d="M22.3125 13.5H12.75V4.5H15.9375V11.25H22.3125V13.5ZM51 24.75C51 25.7695 50.8174 26.7539 50.4521 27.7031C50.0869 28.6523 49.5557 29.543 48.8584 30.375C48.1611 31.207 47.3311 31.9688 46.3682 32.6602C45.4053 33.3516 44.3428 33.9434 43.1807 34.4355C42.0186 34.9277 40.7568 35.3145 39.3955 35.5957C38.0342 35.877 36.6396 36.0117 35.2119 36C32.9873 36 30.9038 35.7129 28.9614 35.1387C27.019 34.5645 25.3174 33.7676 23.8564 32.748C22.3955 31.7285 21.2417 30.5332 20.395 29.1621C19.5483 27.791 19.125 26.3203 19.125 24.75C19.125 23.2031 19.54 21.75 20.3701 20.3906C21.2002 19.0312 22.3457 17.8359 23.8066 16.8047C25.2676 15.7734 26.9526 14.9707 28.8618 14.3965C30.771 13.8223 32.8379 13.5234 35.0625 13.5C37.2539 13.5 39.3125 13.793 41.2383 14.3789C43.1641 14.9648 44.8574 15.7734 46.3184 16.8047C47.7793 17.8359 48.9165 19.0254 49.73 20.373C50.5435 21.7207 50.9668 23.1797 51 24.75ZM35.0625 33.75C35.4111 33.75 35.7183 33.6621 35.9839 33.4863C36.2495 33.3105 36.4902 33.0762 36.7061 32.7832C36.9219 32.4902 37.0962 32.1797 37.229 31.8516C37.3618 31.5234 37.4863 31.1836 37.6025 30.832C37.7187 30.4805 37.7935 30.1699 37.8267 29.9004C37.8599 29.6309 37.9014 29.4141 37.9512 29.25H32.2236C32.2402 29.4023 32.2817 29.6191 32.3481 29.9004C32.4146 30.1816 32.4976 30.4863 32.5972 30.8145C32.6968 31.1426 32.8213 31.4824 32.9707 31.834C33.1201 32.1855 33.2944 32.502 33.4937 32.7832C33.6929 33.0645 33.917 33.293 34.166 33.4688C34.415 33.6445 34.7139 33.7383 35.0625 33.75ZM38.1753 27C38.2251 26.25 38.25 25.5 38.25 24.75C38.25 24.0117 38.2251 23.2617 38.1753 22.5H31.9497C31.8999 23.2617 31.875 24.0117 31.875 24.75C31.875 25.5 31.8999 26.25 31.9497 27H38.1753ZM22.3125 24.75C22.3125 25.125 22.3457 25.5 22.4121 25.875C22.4785 26.25 22.5781 26.625 22.7109 27H28.7622C28.6626 25.5 28.6626 24 28.7622 22.5H22.7109C22.5781 22.875 22.4785 23.25 22.4121 23.625C22.3457 24 22.3125 24.375 22.3125 24.75ZM35.0625 15.75C34.7471 15.75 34.4648 15.8379 34.2158 16.0137C33.9668 16.1895 33.7427 16.4238 33.5435 16.7168C33.3442 17.0098 33.1699 17.3262 33.0205 17.666C32.8711 18.0059 32.7466 18.3457 32.647 18.6855C32.5474 19.0254 32.4561 19.3359 32.373 19.6172C32.29 19.8984 32.2485 20.1094 32.2485 20.25H37.8516C37.835 20.1211 37.7935 19.9219 37.7271 19.6523C37.6606 19.3828 37.5693 19.0781 37.4531 18.7383C37.3369 18.3984 37.2041 18.0527 37.0547 17.7012C36.9053 17.3496 36.731 17.0332 36.5317 16.752C36.3325 16.4707 36.1084 16.2305 35.8594 16.0312C35.6104 15.832 35.3447 15.7383 35.0625 15.75ZM41.3628 22.5C41.4126 23.25 41.4375 24 41.4375 24.75C41.4375 25.5 41.4209 26.25 41.3877 27H47.4141C47.5469 26.625 47.6465 26.25 47.7129 25.875C47.7793 25.5 47.8125 25.125 47.8125 24.75C47.8125 24.375 47.7793 24 47.7129 23.625C47.6465 23.25 47.5469 22.875 47.4141 22.5H41.3628ZM46.0942 20.25C45.3804 19.3711 44.4839 18.6035 43.4048 17.9473C42.3257 17.291 41.1221 16.7695 39.7939 16.3828C40.126 17.0039 40.3916 17.6367 40.5908 18.2812C40.79 18.9258 40.9561 19.582 41.0889 20.25H46.0942ZM30.2314 16.418C28.9365 16.793 27.7578 17.3086 26.6953 17.9648C25.6328 18.6211 24.7446 19.3828 24.0308 20.25H29.0112C29.1274 19.5938 29.2769 18.9492 29.4595 18.3164C29.6421 17.6836 29.8994 17.0508 30.2314 16.418ZM24.0308 29.25C24.728 30.1055 25.5996 30.8613 26.6455 31.5176C27.6914 32.1738 28.8701 32.6895 30.1816 33.0645C29.8496 32.4551 29.6006 31.8281 29.4346 31.1836C29.2686 30.5391 29.1274 29.8945 29.0112 29.25H24.0308ZM40.043 33.0293C41.3213 32.6543 42.4751 32.1445 43.5044 31.5C44.5337 30.8555 45.397 30.1055 46.0942 29.25H41.1636C41.0806 29.8945 40.9561 30.5332 40.79 31.166C40.624 31.7988 40.375 32.4199 40.043 33.0293ZM15.9375 0C17.3984 0 18.8096 0.134766 20.1709 0.404297C21.5322 0.673828 22.8022 1.04883 23.981 1.5293C25.1597 2.00977 26.2305 2.5957 27.1934 3.28711C28.1563 3.97852 28.9863 4.74023 29.6836 5.57227C30.3809 6.4043 30.9204 7.30078 31.3022 8.26172C31.6841 9.22266 31.875 10.2187 31.875 11.25H28.6875C28.6875 10.0078 28.3555 8.8418 27.6914 7.75195C27.0273 6.66211 26.1143 5.71289 24.9521 4.9043C23.79 4.0957 22.437 3.45117 20.8931 2.9707C19.3491 2.49023 17.6973 2.25 15.9375 2.25C14.1777 2.25 12.5259 2.48438 10.9819 2.95312C9.43799 3.42187 8.09326 4.06641 6.94775 4.88672C5.80225 5.70703 4.88916 6.66211 4.2085 7.75195C3.52783 8.8418 3.1875 10.0078 3.1875 11.25C3.1875 12.4922 3.51953 13.6582 4.18359 14.748C4.84766 15.8379 5.76074 16.7871 6.92285 17.5957C8.08496 18.4043 9.43799 19.0488 10.9819 19.5293C12.5259 20.0098 14.1777 20.25 15.9375 20.25V22.5C14.4766 22.5 13.0654 22.3652 11.7041 22.0957C10.3428 21.8262 9.07275 21.4512 7.89404 20.9707C6.71533 20.4902 5.64453 19.9043 4.68164 19.2129C3.71875 18.5215 2.88867 17.7598 2.19141 16.9277C1.49414 16.0957 0.95459 15.1992 0.572754 14.2383C0.190918 13.2773 0 12.2813 0 11.25C0 9.70312 0.415039 8.25 1.24512 6.89062C2.0752 5.53125 3.2207 4.33594 4.68164 3.30469C6.14258 2.27344 7.82764 1.4707 9.73682 0.896484C11.646 0.322266 13.7129 0.0234375 15.9375 0Z" fill="#F24822"/>
</svg>
