<svg width="38" height="37" viewBox="0 0 38 37" fill="none" xmlns="http://www.w3.org/2000/svg">
<path d="M28.5 25.4375H32.0625V27.75H26.125V20.8125H28.5V25.4375ZM23.75 9.25H4.75V6.9375H23.75V9.25ZM27.3125 16.1875C28.7845 16.1875 30.1699 16.4585 31.4688 17.0005C32.7676 17.5425 33.8994 18.2892 34.8643 19.2407C35.8291 20.1922 36.5898 21.2943 37.1465 22.5469C37.7031 23.7995 37.9876 25.1484 38 26.5938C38 28.027 37.7217 29.376 37.165 30.6406C36.6084 31.9053 35.8415 33.0073 34.8643 33.9468C33.887 34.8862 32.7552 35.627 31.4688 36.1689C30.1823 36.7109 28.7969 36.988 27.3125 37C25.8405 37 24.4551 36.729 23.1562 36.187C21.8574 35.645 20.7256 34.8983 19.7607 33.9468C18.7959 32.9953 18.0352 31.8932 17.4785 30.6406C16.9219 29.388 16.6374 28.0391 16.625 26.5938C16.625 25.1605 16.9033 23.8115 17.46 22.5469C18.0166 21.2822 18.7835 20.1802 19.7607 19.2407C20.738 18.3013 21.8698 17.5605 23.1562 17.0186C24.4427 16.4766 25.8281 16.1995 27.3125 16.1875ZM27.3125 34.6875C28.4629 34.6875 29.5391 34.4767 30.541 34.0552C31.543 33.6336 32.4212 33.0555 33.1758 32.3208C33.9303 31.5861 34.5241 30.731 34.957 29.7554C35.39 28.7798 35.6126 27.7259 35.625 26.5938C35.625 25.4736 35.4085 24.4258 34.9756 23.4502C34.5426 22.4746 33.9489 21.6195 33.1943 20.8848C32.4398 20.1501 31.5615 19.5719 30.5596 19.1504C29.5576 18.7288 28.4753 18.512 27.3125 18.5C26.1621 18.5 25.0859 18.7108 24.084 19.1323C23.082 19.5539 22.2038 20.132 21.4492 20.8667C20.6947 21.6014 20.1009 22.4565 19.668 23.4321C19.235 24.4077 19.0124 25.4616 19 26.5938C19 27.7139 19.2165 28.7617 19.6494 29.7373C20.0824 30.7129 20.6761 31.568 21.4307 32.3027C22.1852 33.0374 23.0635 33.6156 24.0654 34.0371C25.0674 34.4587 26.1497 34.6755 27.3125 34.6875ZM21.6348 13.875C20.2865 14.4531 19.0495 15.224 17.9238 16.1875H4.75V13.875H21.6348ZM14.3799 20.8125C14.2067 21.1859 14.0521 21.5653 13.916 21.9507C13.7799 22.3361 13.6501 22.7275 13.5264 23.125H4.75V20.8125H14.3799ZM4.75 27.75H13.1182C13.1553 28.1354 13.2048 28.5208 13.2666 28.9062C13.3285 29.2917 13.415 29.6771 13.5264 30.0625H4.75V27.75ZM15.7715 34.6875C16.39 35.5426 17.1074 36.3135 17.9238 37H0V0H28.5V12.7729L27.9062 12.7368C27.7083 12.7248 27.5104 12.7188 27.3125 12.7188C27.1146 12.7188 26.9167 12.7248 26.7188 12.7368C26.5208 12.7489 26.3229 12.7609 26.125 12.7729V2.3125H2.375V34.6875H15.7715Z" fill="#F24822"/>
</svg>

