<svg width="57" height="35" viewBox="0 0 57 35" fill="none" xmlns="http://www.w3.org/2000/svg">
<path d="M17.1 17.5C22.613 17.5 27.075 14.0752 27.075 9.84375C27.075 5.6123 22.613 2.1875 17.1 2.1875C11.587 2.1875 7.125 5.6123 7.125 9.84375C7.125 14.0752 11.587 17.5 17.1 17.5ZM23.94 19.6875H23.2008C21.3483 20.3711 19.2909 20.7812 17.1 20.7812C14.9091 20.7812 12.8606 20.3711 10.9992 19.6875H10.26C4.59562 19.6875 0 23.2148 0 27.5625V29.5312C0 31.3428 1.91484 32.8125 4.275 32.8125H29.925C32.2852 32.8125 34.2 31.3428 34.2 29.5312V27.5625C34.2 23.2148 29.6044 19.6875 23.94 19.6875ZM42.75 17.5C47.4703 17.5 51.3 14.5605 51.3 10.9375C51.3 7.31445 47.4703 4.375 42.75 4.375C38.0297 4.375 34.2 7.31445 34.2 10.9375C34.2 14.5605 38.0297 17.5 42.75 17.5ZM47.025 19.6875H46.6866C45.4486 20.0156 44.1394 20.2344 42.75 20.2344C41.3606 20.2344 40.0514 20.0156 38.8134 19.6875H38.475C36.6581 19.6875 34.9837 20.0908 33.5142 20.7402C35.6873 22.5381 37.05 24.9238 37.05 27.5625V30.1875C37.05 30.3379 37.0055 30.4814 36.9966 30.625H52.725C55.0852 30.625 57 29.1553 57 27.3438C57 23.1123 52.538 19.6875 47.025 19.6875Z" fill="#F24822"/>
</svg>
